<svg width="20" height="21" viewBox="0 0 20 21" fill="none"
    xmlns="http://www.w3.org/2000/svg">
    <g opacity="0.5">
        <path d="M15.564 16.3451L10.8015 11.5817C8.68288 13.0879 5.76352 12.7195 4.08555 10.7342C2.40758 8.74882 2.53079 5.80889 4.36899 3.9709C6.2067 2.1321 9.14693 2.00836 11.1326 3.68624C13.1184 5.36412 13.487 8.28377 11.9807 10.4026L16.7432 15.1659L15.5648 16.3442L15.564 16.3451ZM7.90399 4.17255C6.32374 4.1722 4.9604 5.28146 4.63938 6.82876C4.31837 8.37606 5.12791 9.93612 6.57788 10.5644C8.02786 11.1927 9.71974 10.7166 10.6292 9.42427C11.5386 8.13196 11.4157 6.37866 10.3348 5.2259L10.839 5.7259L10.2707 5.15923L10.2607 5.14923C9.63714 4.52188 8.78848 4.17017 7.90399 4.17255Z" fill="white"/>
    </g>
</svg>
