<svg width="180" height="32" viewBox="0 0 180 32" fill="none" xmlns="http://www.w3.org/2000/svg">
    <g clip-path="url(#clip0_818_9516)">
        <path
            d="M54.445 7.14882L60.33 24.6784H57.095L55.856 20.7944H49.7989L48.5944 24.6784H45.3594L51.2444 7.14882H54.445ZM50.6593 17.9071H54.9268L52.7586 11.1359L50.6593 17.9071ZM62.7735 24.6784V7.18319H70.2072C73.2357 7.18319 75.0597 9.03926 75.0597 11.0328V14.745C75.0597 16.1542 74.0961 17.4947 72.4786 18.1477L75.4383 24.644H72.0312L69.2435 18.5258H66.0085V24.644H62.7735V24.6784ZM66.0429 10.1048V15.673H69.9663C70.9987 15.673 71.8591 15.0887 71.8591 14.0575V11.7546C71.8591 10.6891 70.9643 10.1048 69.8286 10.1048H66.0429ZM81.4954 24.6784V10.0704H77.159V7.21756H88.7225V10.0704H84.7304V24.6784H81.4954ZM92.6115 19.6945V20.8287C92.6115 22.3755 94.0569 23.5441 95.9153 23.5441H97.9802C99.9075 23.5441 101.387 22.6161 101.387 21.0006V19.7632C101.387 17.0822 91.7167 16.5667 91.7167 11.9609V10.3798C91.7167 8.6268 93.403 7.08008 95.64 7.08008H97.9458C100.458 7.08008 102.317 8.76429 102.317 10.6547V12.2358H100.871V10.9297C100.871 9.48609 99.5289 8.3862 97.8426 8.3862H95.8465C94.3666 8.3862 93.1621 9.34861 93.1621 10.6204V11.8921C93.1621 15.3293 102.833 15.7761 102.833 19.557V21.2412C102.833 23.441 100.802 24.8158 98.0835 24.8158H95.8465C93.1277 24.8158 91.1316 23.0629 91.1316 21.035V19.6945H92.6115ZM110.094 24.6784V8.48932H105.207V7.21756H116.22V8.48932H111.54V24.6784H110.094ZM123.998 7.11445L130.158 24.6784H128.713L126.751 19.0758H119.765L117.838 24.6784H116.358L122.553 7.11445H123.998ZM120.212 17.7697H126.304L123.275 8.97052L120.212 17.7697ZM135.286 24.6784V8.48932H130.399V7.21756H141.412V8.48932H136.732V24.6784H135.286ZM144.647 24.6784V7.21756H146.093V24.6784H144.647ZM155.075 24.8158C152.666 24.8158 150.945 23.0629 150.945 21.035V10.861C150.945 8.83303 152.7 7.08008 155.075 7.08008H158.551C160.926 7.08008 162.646 8.83303 162.646 10.861V21.035C162.646 23.0629 160.926 24.8158 158.551 24.8158H155.075ZM158.413 23.5097C159.962 23.5097 161.201 22.3411 161.201 20.7944V11.1016C161.201 9.55484 159.962 8.3862 158.413 8.3862H155.144C153.595 8.3862 152.356 9.55484 152.356 11.1016V20.8287C152.356 22.3755 153.595 23.5441 155.144 23.5441H158.413V23.5097ZM167.499 24.6784V7.21756H169.013L177.789 22.1349V7.18319H179.235V24.644H177.72L168.944 9.72669V24.644H167.499V24.6784Z"
            fill="white" />
        <path
            d="M0 24.6788L3.06295 29.9721C3.68243 31.1751 4.92137 32 6.3324 32H26.7406L22.542 24.6788H0ZM36.4113 24.7132C36.4113 23.9914 36.2048 23.304 35.8262 22.7197L23.8497 1.95918C23.2303 0.790548 22.0257 0 20.6147 0H14.2823L32.7633 31.9656L35.6886 26.913C36.2392 25.9506 36.4113 25.5381 36.4113 24.7132V24.7132ZM19.5134 19.4544L11.2538 5.19012L2.99412 19.4544H19.5134Z"
            fill="#DD4460" />
    </g>
    <defs>
        <clipPath id="clip0_818_9516">
            <rect width="179.2" height="32" fill="white" />
        </clipPath>
    </defs>
</svg>
    