<svg width="158" height="125" viewBox="0 0 158 125" fill="none" xmlns="http://www.w3.org/2000/svg">
<g clip-path="url(#clip0_12854_2042)">
<path d="M117.51 22.8545C117.51 22.8545 118.16 31.1616 112.097 44.6852C106.034 58.2088 121.221 78.8781 130.01 68.1399C138.799 57.4017 124.538 28.9273 117.51 22.8545Z" fill="url(#paint0_linear_12854_2042)"/>
<path d="M117.51 22.8545C117.51 22.8545 118.16 31.1616 112.097 44.6852C106.034 58.2088 121.221 78.8781 130.01 68.1399C138.799 57.4017 124.538 28.9273 117.51 22.8545Z" fill="url(#paint1_linear_12854_2042)"/>
<path d="M40.6195 22.8545C40.6195 22.8545 39.9699 31.1616 46.0329 44.6852C52.0959 58.2088 36.9089 78.8781 28.1195 68.1399C19.34 57.4017 33.6018 28.9273 40.6195 22.8545Z" fill="url(#paint2_linear_12854_2042)"/>
<path d="M40.6195 22.8545C40.6195 22.8545 39.9699 31.1616 46.0329 44.6852C52.0959 58.2088 36.9089 78.8781 28.1195 68.1399C19.34 57.4017 33.6018 28.9273 40.6195 22.8545Z" fill="url(#paint3_linear_12854_2042)"/>
<path d="M115.276 94.2519C102.175 107.864 79.065 123.277 79.065 123.277C79.065 123.277 55.9449 107.874 42.8544 94.2519C29.754 80.6397 21.0237 55.4723 42.8544 37.4901C64.6851 19.5176 79.065 5.1377 79.065 5.1377C79.065 5.1377 93.4449 19.5176 115.276 37.4999C137.116 55.4723 128.386 80.6495 115.276 94.2519Z" fill="url(#paint4_linear_12854_2042)"/>
<path d="M79.065 5.1377V123.277C79.065 123.277 55.9449 107.874 42.8544 94.2519C29.754 80.6397 21.0237 55.4723 42.8544 37.4901C64.6851 19.5078 79.065 5.1377 79.065 5.1377Z" fill="url(#paint5_linear_12854_2042)"/>
<path d="M115.286 94.2519C102.185 107.864 79.0752 123.277 79.0752 123.277V5.1377C79.0752 5.1377 93.4551 19.5176 115.286 37.4999C137.117 55.4723 128.386 80.6495 115.286 94.2519Z" fill="url(#paint6_linear_12854_2042)"/>
<path d="M79.0648 115.522C72.1947 110.729 56.9289 99.6661 47.4604 89.8235C41.5057 83.6326 35.364 73.1503 35.9939 62.2743C36.427 54.7153 40.1081 48.042 46.9191 42.4318C61.801 30.1779 73.1592 19.6759 79.0648 14.0361C84.9801 19.6661 96.3384 30.1779 111.21 42.422C118.031 48.0322 121.703 54.7054 122.136 62.2645C122.766 73.1405 116.624 83.6227 110.669 89.8137C101.201 99.6661 85.9348 110.729 79.0648 115.522Z" fill="url(#paint7_radial_12854_2042)"/>
<g opacity="0.43">
<path d="M79.0648 15.1385C84.7931 20.5814 96.0726 30.9948 110.708 43.042C117.342 48.5046 120.925 54.9909 121.348 62.3137C121.958 72.9338 115.945 83.1897 110.098 89.2625C100.787 98.9475 85.6297 109.942 79.0648 114.538C72.4998 109.932 57.3423 98.9377 48.0313 89.2625C42.1947 83.1995 36.1711 72.9338 36.7911 62.3137C37.2144 54.9909 40.797 48.5046 47.4211 43.042C62.0569 30.9948 73.3364 20.5814 79.0648 15.1385ZM79.0648 14.0361C73.1494 19.6661 61.7911 30.1779 46.9191 42.4318C40.1081 48.042 36.4368 54.7153 35.9939 62.2743C35.364 73.1503 41.5057 83.6326 47.4604 89.8235C56.9289 99.6661 72.2045 110.729 79.0648 115.522C85.9348 110.729 101.201 99.6661 110.669 89.8235C116.624 83.6326 122.766 73.1503 122.136 62.2743C121.703 54.7153 118.021 48.042 111.21 42.4318C96.3384 30.1779 84.9801 19.6759 79.0648 14.0361Z" fill="#7A5324"/>
</g>
<path d="M110.433 43.8681C110.354 43.7992 110.275 43.7303 110.197 43.6713C96.0036 31.9783 84.9505 21.8209 79.0646 16.25C73.1788 21.8209 62.1257 31.9783 47.9327 43.6713C41.476 48.9862 38.0016 55.2756 37.5883 62.372C37.1552 69.9311 40.1768 77.313 44.0646 83.061C69.793 75.4528 94.5272 64.7047 110.433 43.8681Z" fill="url(#paint8_radial_12854_2042)"/>
<path d="M79.0644 14.0357C84.9798 19.6656 96.338 30.1774 111.21 42.4215C118.031 48.0317 121.702 54.705 122.135 62.264C122.765 73.14 116.623 83.6223 110.669 89.8132C101.2 99.6656 85.9247 110.719 79.0644 115.512C72.1943 110.719 56.9286 99.6557 47.4601 89.8132C41.5054 83.6223 35.3636 73.14 35.9936 62.264C36.4266 54.705 40.1077 48.0317 46.9188 42.4215C61.7908 30.1774 73.1491 19.6754 79.0644 14.0357ZM79.0644 12.4707L78.2869 13.2187C72.7751 18.4746 61.279 29.1341 46.2002 41.5553C39.1333 47.3723 35.3243 54.3211 34.8617 62.205C34.2121 73.4451 40.5211 84.2424 46.6432 90.6105C56.2987 100.65 72.0762 112.028 78.4148 116.457L79.0644 116.91L79.714 116.457C86.0526 112.028 101.83 100.65 111.496 90.6105C117.618 84.2522 123.927 73.455 123.277 62.2148C122.824 54.3309 119.005 47.3821 111.938 41.5553C96.8695 29.1439 85.3636 18.4746 79.8518 13.2187L79.0644 12.4707Z" fill="url(#paint9_linear_12854_2042)"/>
<path d="M75.0388 124.567C75.0388 124.567 77.0959 115.581 50.8951 90.6596C24.6943 65.7383 33.1786 31.5848 40.6195 22.8545C40.6195 22.8545 18.277 35.9549 19.0447 64.4588C19.8223 92.9726 51.151 105.817 75.0388 124.567Z" fill="url(#paint10_linear_12854_2042)"/>
<path d="M20.335 73.1396C26.5062 95.7971 53.7306 107.825 75.0397 124.557C75.0397 124.557 77.0968 115.571 50.896 90.6495C47.2346 87.1652 44.2424 83.494 41.8409 79.744C40.8172 79.5471 39.7838 79.3601 38.7602 79.1633C32.2838 77.8837 26.0731 75.9152 20.335 73.1396Z" fill="url(#paint11_linear_12854_2042)"/>
<path d="M73.681 123.504C49.9802 105.315 19.8031 92.4313 19.0452 64.4491C18.2775 36.2798 40.0983 23.1498 40.6101 22.8447C40.6003 22.8546 40.5905 22.8644 40.5806 22.8743C39.6456 23.7896 22.805 40.6302 27.4605 66.6046C31.7519 90.4924 60.9349 107.254 73.681 123.504Z" fill="url(#paint12_radial_12854_2042)"/>
<path d="M73.681 123.504C49.9802 105.315 19.8031 92.4313 19.0452 64.4491C18.2775 36.2798 40.0983 23.1498 40.6101 22.8447C40.6003 22.8546 40.5905 22.8644 40.5806 22.8743C39.6456 23.7896 22.805 40.6302 27.4605 66.6046C31.7519 90.4924 60.9349 107.254 73.681 123.504Z" fill="url(#paint13_radial_12854_2042)"/>
<path d="M83.1004 124.567C83.1004 124.567 81.0433 115.581 107.244 90.6596C133.445 65.7383 124.97 31.5848 117.52 22.8545C117.52 22.8545 139.862 35.9549 139.094 64.4588C138.317 92.9726 106.988 105.817 83.1004 124.567Z" fill="url(#paint14_linear_12854_2042)"/>
<path d="M137.805 73.1396C131.634 95.7971 104.409 107.825 83.1004 124.557C83.1004 124.557 81.0433 115.571 107.244 90.6495C110.906 87.1652 113.898 83.494 116.299 79.744C117.323 79.5471 118.356 79.3601 119.38 79.1633C125.856 77.8837 132.067 75.9152 137.805 73.1396Z" fill="url(#paint15_linear_12854_2042)"/>
<path d="M84.459 123.504C108.16 105.315 138.337 92.4313 139.095 64.4491C139.863 36.2798 118.042 23.1498 117.53 22.8447C117.54 22.8546 117.55 22.8644 117.559 22.8743C118.494 23.7896 135.335 40.6302 130.679 66.6046C126.388 90.4924 97.205 107.254 84.459 123.504Z" fill="url(#paint16_radial_12854_2042)"/>
<path d="M84.459 123.504C108.16 105.315 138.337 92.4313 139.095 64.4491C139.863 36.2798 118.042 23.1498 117.53 22.8447C117.54 22.8546 117.55 22.8644 117.559 22.8743C118.494 23.7896 135.335 40.6302 130.679 66.6046C126.388 90.4924 97.205 107.254 84.459 123.504Z" fill="url(#paint17_radial_12854_2042)"/>
<path d="M45.8063 29.5371C45.8063 29.5371 53.198 21.6336 47.0563 10.4131C47.0662 10.4033 41.1213 17.4308 45.8063 29.5371Z" fill="url(#paint18_linear_12854_2042)"/>
<path d="M45.8164 29.5174C45.9345 29.0548 48.3951 19.5765 47.0664 10.4131C53.0408 21.3383 46.1904 29.104 45.8164 29.5174Z" fill="url(#paint19_radial_12854_2042)"/>
<path d="M56.348 22.0768C56.348 22.0768 63.7398 11.2205 57.598 0C57.598 0 51.663 9.98032 56.348 22.0768Z" fill="url(#paint20_linear_12854_2042)"/>
<path d="M56.3574 22.0571C56.4755 21.5945 58.9362 9.16339 57.6074 0C63.5818 10.935 56.7314 21.6535 56.3574 22.0571Z" fill="url(#paint21_radial_12854_2042)"/>
<path d="M112.322 29.5371C112.322 29.5371 104.931 21.6336 111.072 10.4131C111.062 10.4033 117.007 17.4308 112.322 29.5371Z" fill="url(#paint22_linear_12854_2042)"/>
<path d="M112.312 29.5174C112.194 29.0548 109.734 19.5765 111.062 10.4131C105.088 21.3383 111.938 29.104 112.312 29.5174Z" fill="url(#paint23_radial_12854_2042)"/>
<path d="M101.78 22.0768C101.78 22.0768 94.3885 11.2205 100.53 0C100.53 0 106.465 9.98032 101.78 22.0768Z" fill="url(#paint24_linear_12854_2042)"/>
<path d="M101.77 22.0571C101.652 21.5945 99.1917 9.16339 100.52 0C94.546 10.935 101.396 21.6535 101.77 22.0571Z" fill="url(#paint25_radial_12854_2042)"/>
<path d="M40.5903 77.8548C40.5903 77.8548 28.1789 74.2131 20.669 74.3411C20.669 74.3411 20.6494 74.3017 20.61 74.2131C19.9899 72.1855 19.5372 70.0596 19.2812 67.845C21.6139 67.0773 38.2576 73.8785 40.5903 77.8548Z" fill="url(#paint26_linear_12854_2042)"/>
<path d="M49.7236 89.7055C49.7236 89.7055 37.0267 89.1445 30.4421 90.6701H30.4322C28.8082 88.8886 27.3121 87.048 25.9834 85.1189C29.6842 83.7508 47.6763 86.674 49.7236 89.7055Z" fill="url(#paint27_linear_12854_2042)"/>
<path d="M59.6746 99.6358C59.6746 99.6358 50.0486 100.413 46.0328 104.104C43.5328 102.293 41.1214 100.443 38.8281 98.5531C40.9049 98.1988 54.8321 96.0334 59.6746 99.6358Z" fill="url(#paint28_linear_12854_2042)"/>
<path d="M40.6004 77.8546C40.6004 77.8546 40.9843 67.5495 28.8484 62.0475C16.7126 56.5554 12.4508 50.0889 12.1752 39.7148C12.1752 39.7148 0.511818 49.3211 9.40946 62.7168C15.2953 71.5751 34.9213 74.4885 40.6004 77.8546Z" fill="url(#paint29_linear_12854_2042)"/>
<path d="M40.6004 77.8545C34.9213 74.4884 15.2953 71.5848 9.40946 62.7167C0.511818 49.3309 12.1752 39.7246 12.1752 39.7246C12.1752 39.7246 5.82678 51.0534 13.3465 59.4097C20.876 67.7758 32.6673 68.6026 40.6004 77.8545Z" fill="url(#paint30_radial_12854_2042)"/>
<path d="M12.1749 39.7246C11.1808 41.7522 10.5115 43.9175 10.1375 46.1321C9.75363 48.3368 9.7241 50.6104 10.2064 52.7955C10.6788 54.9707 11.6828 57.0179 13.1099 58.7108C14.5371 60.4136 16.2399 61.89 18.0804 63.1695C21.7615 65.7285 25.9347 67.51 29.921 69.6459C31.9091 70.7285 33.8678 71.8703 35.6887 73.2187C37.4898 74.5868 39.1434 76.1518 40.6001 77.8742C39.0745 76.2108 37.3717 74.7246 35.5312 73.4352C33.6906 72.136 31.7221 71.0435 29.7241 70.0199C25.728 67.9726 21.545 66.1911 17.7753 63.6222C15.915 62.3132 14.1926 60.7974 12.7359 59.0356C11.2792 57.2738 10.2261 55.1478 9.80284 52.8939C9.35993 50.64 9.44851 48.327 9.88158 46.1026C10.3442 43.8585 11.1021 41.703 12.1749 39.7246Z" fill="url(#paint31_radial_12854_2042)"/>
<path d="M49.7334 89.7049C49.7334 89.7049 48.5031 79.7246 31.6724 77.638C14.8417 75.5514 5.56017 67.5789 2.78458 57.7266C2.78458 57.7266 -3.73117 69.7738 6.17041 80.0199C16.0621 90.2561 40.2747 87.9333 49.7334 89.7049Z" fill="url(#paint32_linear_12854_2042)"/>
<path d="M49.7338 89.7048C40.2752 87.9429 16.0626 90.2559 6.17082 80.0099C-3.52406 69.9902 2.51925 58.2185 2.77515 57.7461C2.66689 58.3268 0.0192478 73.9272 14.9799 79.6063C30.2358 85.3937 40.6492 82.6378 49.7338 89.7048Z" fill="url(#paint33_radial_12854_2042)"/>
<path d="M2.77512 57.7461C2.49953 60.3839 2.62748 63.0611 3.22787 65.6201C3.79874 68.1792 4.8322 70.6398 6.37748 72.7166C7.94244 74.7737 9.88141 76.5748 12.1846 77.7855C14.468 78.9863 16.968 79.8819 19.5074 80.6004C24.5369 82.1949 29.7928 82.9331 35.0291 83.8485C37.6472 84.3307 40.2751 84.8622 42.7948 85.7677C45.3046 86.6929 47.6964 87.9823 49.7239 89.7048C47.5586 88.1595 45.1668 86.9784 42.6373 86.2303C40.1275 85.4331 37.5192 84.9902 34.9011 84.6063C29.6649 83.8485 24.3499 83.1004 19.222 81.5552C16.6629 80.7973 14.1334 79.8721 11.7417 78.5827L10.0192 77.5C9.47787 77.0965 8.96606 76.6437 8.43457 76.2205C7.88338 75.817 7.47 75.2658 6.99756 74.7737C6.78102 74.5177 6.52512 74.2815 6.32827 74.0059L5.74756 73.1693C2.67669 68.6516 1.84008 62.9429 2.77512 57.7461Z" fill="url(#paint34_radial_12854_2042)"/>
<path d="M59.6748 99.6365C59.6748 99.6365 54.9012 89.6758 38.6906 91.3688C20.3441 93.288 14.0351 89.1247 12.1551 87.668C12.1551 87.668 11.4563 99.1739 25.5114 102.274C37.1354 104.843 49.8815 97.8156 59.6748 99.6365Z" fill="url(#paint35_linear_12854_2042)"/>
<path d="M59.675 99.6365C49.8816 97.8255 37.1257 104.843 25.5214 102.274C11.4565 99.1739 12.1651 87.668 12.1651 87.668C12.1651 87.668 14.4092 97.7172 30.4722 97.4908C46.5254 97.2644 51.4171 94.3904 59.675 99.6365Z" fill="url(#paint36_radial_12854_2042)"/>
<path d="M12.1553 87.668C12.8442 89.7349 14.1828 91.5262 15.8265 92.8943C17.4604 94.292 19.3994 95.2861 21.4368 95.9357C23.4742 96.6247 25.6198 96.8904 27.7557 97.0774C28.8383 97.0873 29.9013 97.1463 30.984 97.1168C32.0667 97.0774 33.1494 97.0676 34.232 96.9987C36.3974 96.9298 38.5628 96.7821 40.7281 96.6345C42.8935 96.4869 45.0588 96.2802 47.2439 96.2408C49.4191 96.1916 51.6435 96.29 53.7793 96.8314C55.9151 97.3825 57.8836 98.3963 59.675 99.6168C57.795 98.5341 55.8068 97.5991 53.6907 97.1857C51.5844 96.7231 49.4191 96.6936 47.2635 96.8117C42.9525 97.0676 38.612 97.5597 34.2616 97.7369C33.1691 97.7861 32.0864 97.7959 30.9939 97.8156C29.9013 97.8353 28.799 97.7664 27.7065 97.7467C25.5313 97.5203 23.3167 97.2743 21.2498 96.477C19.1828 95.7388 17.2045 94.6562 15.5903 93.1601C14.7734 92.4219 14.0746 91.5558 13.484 90.6404C12.8836 89.7349 12.4112 88.731 12.1553 87.668Z" fill="url(#paint37_radial_12854_2042)"/>
<path d="M117.539 77.8548C117.539 77.8548 129.95 74.2131 137.46 74.3411C137.46 74.3411 137.48 74.3017 137.519 74.2131C138.139 72.1855 138.592 70.0596 138.848 67.845C136.515 67.0773 119.872 73.8785 117.539 77.8548Z" fill="url(#paint38_linear_12854_2042)"/>
<path d="M108.405 89.7055C108.405 89.7055 121.102 89.1445 127.687 90.6701H127.697C129.321 88.8886 130.817 87.048 132.145 85.1189C128.445 83.7508 110.453 86.674 108.405 89.7055Z" fill="url(#paint39_linear_12854_2042)"/>
<path d="M98.4541 99.6358C98.4541 99.6358 108.08 100.413 112.096 104.104C114.596 102.293 117.007 100.443 119.301 98.5531C117.224 98.1988 103.297 96.0334 98.4541 99.6358Z" fill="url(#paint40_linear_12854_2042)"/>
<path d="M117.529 77.8546C117.529 77.8546 117.145 67.5495 129.281 62.0475C141.417 56.5554 145.678 50.0889 145.954 39.7148C145.954 39.7148 157.617 49.3211 148.72 62.7168C142.834 71.5751 123.208 74.4885 117.529 77.8546Z" fill="url(#paint41_linear_12854_2042)"/>
<path d="M117.528 77.8545C123.207 74.4884 142.833 71.5848 148.719 62.7167C157.617 49.3309 145.954 39.7246 145.954 39.7246C145.954 39.7246 152.302 51.0534 144.782 59.4097C137.253 67.7758 125.461 68.6026 117.528 77.8545Z" fill="url(#paint42_radial_12854_2042)"/>
<path d="M145.954 39.7246C146.949 41.7522 147.618 43.9175 147.992 46.1321C148.376 48.3368 148.405 50.6104 147.923 52.7955C147.45 54.9707 146.447 57.0179 145.019 58.7108C143.592 60.4136 141.889 61.89 140.049 63.1695C136.368 65.7285 132.195 67.51 128.218 69.6459C126.23 70.7285 124.271 71.8703 122.45 73.2187C120.649 74.5868 118.996 76.1518 117.539 77.8742C119.065 76.2108 120.767 74.7246 122.608 73.4352C124.449 72.136 126.417 71.0435 128.415 70.0199C132.411 67.9726 136.594 66.1911 140.364 63.6222C142.224 62.3132 143.947 60.7974 145.403 59.0356C146.86 57.2738 147.913 55.1478 148.336 52.8939C148.779 50.64 148.691 48.327 148.258 46.1026C147.785 43.8585 147.027 41.703 145.954 39.7246Z" fill="url(#paint43_radial_12854_2042)"/>
<path d="M108.396 89.7049C108.396 89.7049 109.626 79.7246 126.457 77.638C143.287 75.5514 152.569 67.5789 155.344 57.7266C155.344 57.7266 161.86 69.7738 151.959 80.0199C142.067 90.2561 117.854 87.9333 108.396 89.7049Z" fill="url(#paint44_linear_12854_2042)"/>
<path d="M108.396 89.7048C117.854 87.943 142.067 90.256 151.959 80.01C161.644 69.9804 155.61 58.2186 155.344 57.7363C155.453 58.317 158.1 73.9174 143.14 79.5966C127.894 85.3938 117.48 82.6379 108.396 89.7048Z" fill="url(#paint45_radial_12854_2042)"/>
<path d="M155.354 57.7461C155.63 60.3839 155.502 63.0611 154.901 65.6201C154.33 68.1792 153.297 70.6398 151.752 72.7166C150.187 74.7737 148.248 76.5748 145.945 77.7855C143.661 78.9863 141.161 79.8819 138.622 80.6004C133.592 82.1949 128.336 82.9331 123.1 83.8485C120.482 84.3307 117.854 84.8622 115.334 85.7677C112.825 86.6929 110.433 87.9823 108.405 89.7048C110.571 88.1595 112.962 86.9784 115.492 86.2303C118.002 85.4331 120.61 84.9902 123.228 84.6063C128.464 83.8485 133.779 83.1004 138.907 81.5552C141.466 80.7973 143.986 79.8721 146.388 78.5827L148.11 77.5C148.651 77.0965 149.163 76.6437 149.695 76.2205C150.246 75.817 150.659 75.2658 151.132 74.7737C151.348 74.5177 151.604 74.2815 151.801 74.0059L152.382 73.1693C155.453 68.6516 156.289 62.9429 155.354 57.7461Z" fill="url(#paint46_radial_12854_2042)"/>
<path d="M98.4541 99.6365C98.4541 99.6365 103.228 89.6758 119.438 91.3688C137.785 93.288 144.094 89.1247 145.974 87.668C145.974 87.668 146.673 99.1739 132.617 102.274C120.993 104.843 108.247 97.8156 98.4541 99.6365Z" fill="url(#paint47_linear_12854_2042)"/>
<path d="M98.4541 99.6365C108.247 97.8255 121.003 104.843 132.608 102.274C146.673 99.1739 145.964 87.668 145.964 87.668C145.964 87.668 143.72 97.7172 127.657 97.4908C111.604 97.2644 106.712 94.3904 98.4541 99.6365Z" fill="url(#paint48_radial_12854_2042)"/>
<path d="M145.974 87.668C145.285 89.7349 143.946 91.5262 142.303 92.8943C140.669 94.292 138.73 95.2861 136.692 95.9357C134.655 96.6247 132.509 96.8904 130.373 97.0774C129.291 97.0873 128.228 97.1463 127.145 97.1168C126.062 97.0774 124.98 97.0676 123.897 96.9987C121.732 96.9298 119.566 96.7821 117.401 96.6345C115.236 96.4869 113.07 96.2802 110.885 96.2408C108.71 96.1916 106.486 96.29 104.35 96.8314C102.214 97.3825 100.245 98.3963 98.4541 99.6168C100.334 98.5341 102.322 97.5991 104.438 97.1857C106.545 96.7231 108.71 96.6936 110.866 96.8117C115.177 97.0676 119.517 97.5597 123.867 97.7369C124.96 97.7861 126.043 97.7959 127.135 97.8156C128.228 97.8353 129.33 97.7664 130.423 97.7467C132.598 97.5203 134.812 97.2743 136.879 96.477C138.946 95.7388 140.925 94.6562 142.539 93.1601C143.356 92.4219 144.055 91.5558 144.645 90.6404C145.245 89.7349 145.718 88.731 145.974 87.668Z" fill="url(#paint49_radial_12854_2042)"/>
<path d="M118.819 90.3738C131.653 90.3738 142.057 79.9697 142.057 67.1357C142.057 54.3016 131.653 43.8975 118.819 43.8975C105.985 43.8975 95.5811 54.3016 95.5811 67.1357C95.5811 79.9697 105.985 90.3738 118.819 90.3738Z" fill="url(#paint50_radial_12854_2042)"/>
<path d="M63.3368 54.8914C76.1709 54.8914 86.575 44.4873 86.575 31.6532C86.575 18.8191 76.1709 8.41504 63.3368 8.41504C50.5027 8.41504 40.0986 18.8191 40.0986 31.6532C40.0986 44.4873 50.5027 54.8914 63.3368 54.8914Z" fill="url(#paint51_radial_12854_2042)"/>
<path d="M48.1495 25.9938C49.5866 32.7359 45.2952 39.3599 38.5531 40.8068C31.811 42.2438 25.1869 37.9524 23.7401 31.2103C22.3031 24.4682 26.5944 17.8442 33.3366 16.3973C40.0787 14.9603 46.7125 19.2517 48.1495 25.9938Z" fill="url(#paint52_radial_12854_2042)"/>
<path opacity="0.6" d="M121.752 104.665C134.586 104.665 144.99 94.2608 144.99 81.4267C144.99 68.5926 134.586 58.1885 121.752 58.1885C108.918 58.1885 98.5137 68.5926 98.5137 81.4267C98.5137 94.2608 108.918 104.665 121.752 104.665Z" fill="url(#paint53_radial_12854_2042)"/>
<path d="M66.2238 64.2542C67.2021 64.4607 67.988 64.9454 68.5813 65.7081C69.1747 66.4549 69.4714 67.313 69.4714 68.2823C69.4714 69.6806 68.9743 70.7929 67.9799 71.6192C67.0017 72.4296 65.6305 72.8348 63.8663 72.8348H56V56.1025H63.6017C65.3177 56.1025 66.6569 56.4918 67.6191 57.2705C68.5974 58.0491 69.0865 59.1058 69.0865 60.4405C69.0865 61.4257 68.8219 62.2441 68.2927 62.8956C67.7795 63.5471 67.0899 63.9999 66.2238 64.2542ZM60.1136 62.8717H62.8079C63.4815 62.8717 63.9946 62.7287 64.3475 62.4427C64.7163 62.1408 64.9008 61.7038 64.9008 61.1318C64.9008 60.5597 64.7163 60.1227 64.3475 59.8208C63.9946 59.5189 63.4815 59.368 62.8079 59.368H60.1136V62.8717ZM63.1447 69.5456C63.8343 69.5456 64.3635 69.3946 64.7324 69.0927C65.1173 68.7749 65.3097 68.322 65.3097 67.7341C65.3097 67.1462 65.1092 66.6854 64.7083 66.3517C64.3234 66.018 63.7862 65.8511 63.0966 65.8511H60.1136V69.5456H63.1447Z" fill="url(#paint54_linear_12854_2042)"/>
<path d="M78.1841 56.1025C79.9642 56.1025 81.5198 56.4521 82.8509 57.1513C84.182 57.8505 85.2084 58.8356 85.9301 60.1068C86.6678 61.3622 87.0367 62.8161 87.0367 64.4687C87.0367 66.1054 86.6678 67.5593 85.9301 68.8305C85.2084 70.1017 84.174 71.0869 82.8269 71.7861C81.4958 72.4852 79.9482 72.8348 78.1841 72.8348H71.8573V56.1025H78.1841ZM77.9194 69.3072C79.4751 69.3072 80.6859 68.8861 81.5519 68.044C82.4179 67.2018 82.8509 66.01 82.8509 64.4687C82.8509 62.9273 82.4179 61.7276 81.5519 60.8696C80.6859 60.0115 79.4751 59.5825 77.9194 59.5825H75.9709V69.3072H77.9194Z" fill="url(#paint55_linear_12854_2042)"/>
<path d="M99.8481 69.8793H93.5454L92.535 72.8348H88.229L94.3392 56.1025H99.1023L105.213 72.8348H100.858L99.8481 69.8793ZM98.7896 66.733L96.6967 60.6074L94.6279 66.733H98.7896Z" fill="url(#paint56_linear_12854_2042)"/>
</g>
<defs>
<linearGradient id="paint0_linear_12854_2042" x1="79.3969" y1="12.9091" x2="120.834" y2="48.1824" gradientUnits="userSpaceOnUse">
<stop offset="0.002793" stop-color="#B77946"/>
<stop offset="0.1828" stop-color="#FFF1A3"/>
<stop offset="0.1899" stop-color="#F2DC93"/>
<stop offset="0.2026" stop-color="#E0BE7B"/>
<stop offset="0.2165" stop-color="#D1A468"/>
<stop offset="0.2319" stop-color="#C59159"/>
<stop offset="0.2497" stop-color="#BD834E"/>
<stop offset="0.272" stop-color="#B87B48"/>
<stop offset="0.3128" stop-color="#B77946"/>
<stop offset="0.3308" stop-color="#BF8148"/>
<stop offset="0.4113" stop-color="#E0A24E"/>
<stop offset="0.4553" stop-color="#EDAE50"/>
<stop offset="1" stop-color="#613F1B"/>
</linearGradient>
<linearGradient id="paint1_linear_12854_2042" x1="112.272" y1="31.3363" x2="119.463" y2="48.0313" gradientUnits="userSpaceOnUse">
<stop offset="0.002793" stop-color="#B77946" stop-opacity="0"/>
<stop offset="0.1828" stop-color="#FFF1A3"/>
<stop offset="0.3443" stop-color="#E7C883"/>
<stop offset="0.5097" stop-color="#D2A669"/>
<stop offset="0.6667" stop-color="#C38D56"/>
<stop offset="0.8101" stop-color="#BA7E4A"/>
<stop offset="0.9274" stop-color="#B77946"/>
</linearGradient>
<linearGradient id="paint2_linear_12854_2042" x1="78.7422" y1="12.9091" x2="37.3046" y2="48.1824" gradientUnits="userSpaceOnUse">
<stop offset="0.002793" stop-color="#B77946"/>
<stop offset="0.1828" stop-color="#FFF1A3"/>
<stop offset="0.1899" stop-color="#F2DC93"/>
<stop offset="0.2026" stop-color="#E0BE7B"/>
<stop offset="0.2165" stop-color="#D1A468"/>
<stop offset="0.2319" stop-color="#C59159"/>
<stop offset="0.2497" stop-color="#BD834E"/>
<stop offset="0.272" stop-color="#B87B48"/>
<stop offset="0.3128" stop-color="#B77946"/>
<stop offset="0.3308" stop-color="#BF8148"/>
<stop offset="0.4113" stop-color="#E0A24E"/>
<stop offset="0.4553" stop-color="#EDAE50"/>
<stop offset="1" stop-color="#613F1B"/>
</linearGradient>
<linearGradient id="paint3_linear_12854_2042" x1="45.8674" y1="31.3363" x2="38.6756" y2="48.0313" gradientUnits="userSpaceOnUse">
<stop offset="0.002793" stop-color="#B77946" stop-opacity="0"/>
<stop offset="0.1828" stop-color="#FFF1A3"/>
<stop offset="0.3443" stop-color="#E7C883"/>
<stop offset="0.5097" stop-color="#D2A669"/>
<stop offset="0.6667" stop-color="#C38D56"/>
<stop offset="0.8101" stop-color="#BA7E4A"/>
<stop offset="0.9274" stop-color="#B77946"/>
</linearGradient>
<linearGradient id="paint4_linear_12854_2042" x1="79.0689" y1="118.844" x2="79.0689" y2="-44.5382" gradientUnits="userSpaceOnUse">
<stop stop-color="#B77946"/>
<stop offset="0.2364" stop-color="#FFE794"/>
<stop offset="0.2702" stop-color="#FFE896"/>
<stop offset="0.5159" stop-color="#FFEFA0"/>
<stop offset="0.8284" stop-color="#FFF1A3"/>
<stop offset="0.857" stop-color="#F7E398"/>
<stop offset="0.911" stop-color="#E1BF7C"/>
<stop offset="0.984" stop-color="#BE844F"/>
<stop offset="0.9972" stop-color="#B77946"/>
</linearGradient>
<linearGradient id="paint5_linear_12854_2042" x1="29.5571" y1="64.2053" x2="79.0678" y2="64.2053" gradientUnits="userSpaceOnUse">
<stop stop-color="#B77946"/>
<stop offset="0.2364" stop-color="#FFE794"/>
<stop offset="0.2702" stop-color="#FFE896"/>
<stop offset="0.5159" stop-color="#FFEFA0"/>
<stop offset="0.8284" stop-color="#FFF1A3"/>
<stop offset="0.857" stop-color="#F7E398"/>
<stop offset="0.911" stop-color="#E1BF7C"/>
<stop offset="0.984" stop-color="#BE844F"/>
<stop offset="0.9972" stop-color="#B77946"/>
</linearGradient>
<linearGradient id="paint6_linear_12854_2042" x1="161.712" y1="64.2053" x2="75.508" y2="64.2053" gradientUnits="userSpaceOnUse">
<stop offset="0.002793" stop-color="#B77946"/>
<stop offset="0.1828" stop-color="#FFF1A3"/>
<stop offset="0.1899" stop-color="#F2DC93"/>
<stop offset="0.2026" stop-color="#E0BE7B"/>
<stop offset="0.2165" stop-color="#D1A468"/>
<stop offset="0.2319" stop-color="#C59159"/>
<stop offset="0.2497" stop-color="#BD834E"/>
<stop offset="0.272" stop-color="#B87B48"/>
<stop offset="0.3128" stop-color="#B77946"/>
<stop offset="0.3308" stop-color="#BF8148"/>
<stop offset="0.4113" stop-color="#E0A24E"/>
<stop offset="0.4553" stop-color="#EDAE50"/>
<stop offset="1" stop-color="#613F1B"/>
</linearGradient>
<radialGradient id="paint7_radial_12854_2042" cx="0" cy="0" r="1" gradientUnits="userSpaceOnUse" gradientTransform="translate(79.0685 64.7809) scale(47.0855 47.0855)">
<stop stop-color="#514941"/>
<stop offset="0.3868" stop-color="#574C3F"/>
<stop offset="0.7903" stop-color="#2B1C0D"/>
<stop offset="1" stop-color="#23180D"/>
</radialGradient>
<radialGradient id="paint8_radial_12854_2042" cx="0" cy="0" r="1" gradientUnits="userSpaceOnUse" gradientTransform="translate(62.589 25.4352) scale(81.0929 81.0929)">
<stop stop-color="#D68A18"/>
<stop offset="0.9972" stop-color="#754800" stop-opacity="0"/>
</radialGradient>
<linearGradient id="paint9_linear_12854_2042" x1="34.813" y1="64.6889" x2="123.323" y2="64.6889" gradientUnits="userSpaceOnUse">
<stop stop-color="#B77946"/>
<stop offset="0.1034" stop-color="#EDAE50"/>
<stop offset="0.1954" stop-color="#E2A54D"/>
<stop offset="0.355" stop-color="#C68E45"/>
<stop offset="0.5617" stop-color="#996839"/>
<stop offset="0.6341" stop-color="#875934"/>
<stop offset="0.6378" stop-color="#8A5D37"/>
<stop offset="0.6745" stop-color="#A98454"/>
<stop offset="0.7138" stop-color="#C4A66C"/>
<stop offset="0.7555" stop-color="#D9C180"/>
<stop offset="0.8006" stop-color="#EAD790"/>
<stop offset="0.8507" stop-color="#F6E69B"/>
<stop offset="0.9097" stop-color="#FDEEA1"/>
<stop offset="1" stop-color="#FFF1A3"/>
</linearGradient>
<linearGradient id="paint10_linear_12854_2042" x1="42.3323" y1="115.075" x2="62.88" y2="11.3096" gradientUnits="userSpaceOnUse">
<stop stop-color="#B77946"/>
<stop offset="0.0556" stop-color="#BA7E49"/>
<stop offset="0.1208" stop-color="#C48C54"/>
<stop offset="0.1908" stop-color="#D3A464"/>
<stop offset="0.2636" stop-color="#E8C47B"/>
<stop offset="0.327" stop-color="#FFE794"/>
<stop offset="0.3909" stop-color="#FDE08C"/>
<stop offset="0.4917" stop-color="#F7CD75"/>
<stop offset="0.6161" stop-color="#EDAE50"/>
<stop offset="0.6175" stop-color="#EDAE50"/>
<stop offset="0.7162" stop-color="#F5CC75"/>
<stop offset="0.8284" stop-color="#FFF1A3"/>
</linearGradient>
<linearGradient id="paint11_linear_12854_2042" x1="52.9906" y1="80.1271" x2="42.0318" y2="118.825" gradientUnits="userSpaceOnUse">
<stop offset="0.002793" stop-color="#B77946" stop-opacity="0"/>
<stop offset="0.1828" stop-color="#FFF1A3"/>
<stop offset="0.3443" stop-color="#E7C883"/>
<stop offset="0.5097" stop-color="#D2A669"/>
<stop offset="0.6667" stop-color="#C38D56"/>
<stop offset="0.8101" stop-color="#BA7E4A"/>
<stop offset="0.9274" stop-color="#B77946"/>
</linearGradient>
<radialGradient id="paint12_radial_12854_2042" cx="0" cy="0" r="1" gradientUnits="userSpaceOnUse" gradientTransform="translate(24.7249 48.8116) scale(44.1828)">
<stop stop-color="#F3E8DE"/>
<stop offset="0.5391" stop-color="#F6EEE7" stop-opacity="0.3616"/>
<stop offset="0.9624" stop-color="#F8F1EB" stop-opacity="0"/>
</radialGradient>
<radialGradient id="paint13_radial_12854_2042" cx="0" cy="0" r="1" gradientUnits="userSpaceOnUse" gradientTransform="translate(52.1218 122.184) scale(33.9541 33.9541)">
<stop stop-color="#F3E8DE"/>
<stop offset="0.5391" stop-color="#F6EEE7" stop-opacity="0.3616"/>
<stop offset="0.9624" stop-color="#F8F1EB" stop-opacity="0"/>
</radialGradient>
<linearGradient id="paint14_linear_12854_2042" x1="115.807" y1="115.075" x2="95.259" y2="11.3096" gradientUnits="userSpaceOnUse">
<stop stop-color="#B77946"/>
<stop offset="0.0556" stop-color="#BA7E49"/>
<stop offset="0.1208" stop-color="#C48C54"/>
<stop offset="0.1908" stop-color="#D3A464"/>
<stop offset="0.2636" stop-color="#E8C47B"/>
<stop offset="0.327" stop-color="#FFE794"/>
<stop offset="0.3909" stop-color="#FDE08C"/>
<stop offset="0.4917" stop-color="#F7CD75"/>
<stop offset="0.6161" stop-color="#EDAE50"/>
<stop offset="0.6175" stop-color="#EDAE50"/>
<stop offset="0.7162" stop-color="#F5CC75"/>
<stop offset="0.8284" stop-color="#FFF1A3"/>
</linearGradient>
<linearGradient id="paint15_linear_12854_2042" x1="105.149" y1="80.1271" x2="116.108" y2="118.825" gradientUnits="userSpaceOnUse">
<stop offset="0.002793" stop-color="#B77946" stop-opacity="0"/>
<stop offset="0.1828" stop-color="#FFF1A3"/>
<stop offset="0.3443" stop-color="#E7C883"/>
<stop offset="0.5097" stop-color="#D2A669"/>
<stop offset="0.6667" stop-color="#C38D56"/>
<stop offset="0.8101" stop-color="#BA7E4A"/>
<stop offset="0.9274" stop-color="#B77946"/>
</linearGradient>
<radialGradient id="paint16_radial_12854_2042" cx="0" cy="0" r="1" gradientUnits="userSpaceOnUse" gradientTransform="translate(133.415 48.8116) rotate(180) scale(44.1828 44.1828)">
<stop stop-color="#F3E8DE"/>
<stop offset="0.5391" stop-color="#F6EEE7" stop-opacity="0.3616"/>
<stop offset="0.9624" stop-color="#F8F1EB" stop-opacity="0"/>
</radialGradient>
<radialGradient id="paint17_radial_12854_2042" cx="0" cy="0" r="1" gradientUnits="userSpaceOnUse" gradientTransform="translate(106.018 122.184) rotate(180) scale(33.9541 33.9541)">
<stop stop-color="#F3E8DE"/>
<stop offset="0.5391" stop-color="#F6EEE7" stop-opacity="0.3616"/>
<stop offset="0.9624" stop-color="#F8F1EB" stop-opacity="0"/>
</radialGradient>
<linearGradient id="paint18_linear_12854_2042" x1="39.8998" y1="17.1347" x2="69.7856" y2="30.0918" gradientUnits="userSpaceOnUse">
<stop offset="0.002793" stop-color="#B77946"/>
<stop offset="0.1828" stop-color="#FFF1A3"/>
<stop offset="0.1899" stop-color="#F2DC93"/>
<stop offset="0.2026" stop-color="#E0BE7B"/>
<stop offset="0.2165" stop-color="#D1A468"/>
<stop offset="0.2319" stop-color="#C59159"/>
<stop offset="0.2497" stop-color="#BD834E"/>
<stop offset="0.272" stop-color="#B87B48"/>
<stop offset="0.3128" stop-color="#B77946"/>
<stop offset="0.3308" stop-color="#BF8148"/>
<stop offset="0.4113" stop-color="#E0A24E"/>
<stop offset="0.4553" stop-color="#EDAE50"/>
<stop offset="1" stop-color="#613F1B"/>
</linearGradient>
<radialGradient id="paint19_radial_12854_2042" cx="0" cy="0" r="1" gradientUnits="userSpaceOnUse" gradientTransform="translate(54.9407 29.6015) scale(14.2452 14.2452)">
<stop offset="0.002793" stop-color="#B77946" stop-opacity="0"/>
<stop offset="0.9274" stop-color="#B77946"/>
</radialGradient>
<linearGradient id="paint20_linear_12854_2042" x1="49.9196" y1="7.98041" x2="81.9315" y2="21.8592" gradientUnits="userSpaceOnUse">
<stop offset="0.002793" stop-color="#B77946"/>
<stop offset="0.1828" stop-color="#FFF1A3"/>
<stop offset="0.1899" stop-color="#F2DC93"/>
<stop offset="0.2026" stop-color="#E0BE7B"/>
<stop offset="0.2165" stop-color="#D1A468"/>
<stop offset="0.2319" stop-color="#C59159"/>
<stop offset="0.2497" stop-color="#BD834E"/>
<stop offset="0.272" stop-color="#B87B48"/>
<stop offset="0.3128" stop-color="#B77946"/>
<stop offset="0.3308" stop-color="#BF8148"/>
<stop offset="0.4113" stop-color="#E0A24E"/>
<stop offset="0.4553" stop-color="#EDAE50"/>
<stop offset="1" stop-color="#613F1B"/>
</linearGradient>
<radialGradient id="paint21_radial_12854_2042" cx="0" cy="0" r="1" gradientUnits="userSpaceOnUse" gradientTransform="translate(65.4808 22.163) scale(14.2458 14.2458)">
<stop offset="0.002793" stop-color="#B77946" stop-opacity="0"/>
<stop offset="0.9274" stop-color="#B77946"/>
</radialGradient>
<linearGradient id="paint22_linear_12854_2042" x1="118.229" y1="17.1347" x2="88.3429" y2="30.0918" gradientUnits="userSpaceOnUse">
<stop offset="0.002793" stop-color="#B77946"/>
<stop offset="0.1828" stop-color="#FFF1A3"/>
<stop offset="0.1899" stop-color="#F2DC93"/>
<stop offset="0.2026" stop-color="#E0BE7B"/>
<stop offset="0.2165" stop-color="#D1A468"/>
<stop offset="0.2319" stop-color="#C59159"/>
<stop offset="0.2497" stop-color="#BD834E"/>
<stop offset="0.272" stop-color="#B87B48"/>
<stop offset="0.3128" stop-color="#B77946"/>
<stop offset="0.3308" stop-color="#BF8148"/>
<stop offset="0.4113" stop-color="#E0A24E"/>
<stop offset="0.4553" stop-color="#EDAE50"/>
<stop offset="1" stop-color="#613F1B"/>
</linearGradient>
<radialGradient id="paint23_radial_12854_2042" cx="0" cy="0" r="1" gradientUnits="userSpaceOnUse" gradientTransform="translate(103.188 29.6015) rotate(180) scale(14.2452 14.2452)">
<stop offset="0.002793" stop-color="#B77946" stop-opacity="0"/>
<stop offset="0.9274" stop-color="#B77946"/>
</radialGradient>
<linearGradient id="paint24_linear_12854_2042" x1="108.209" y1="7.98041" x2="76.1968" y2="21.8593" gradientUnits="userSpaceOnUse">
<stop offset="0.002793" stop-color="#B77946"/>
<stop offset="0.1828" stop-color="#FFF1A3"/>
<stop offset="0.1899" stop-color="#F2DC93"/>
<stop offset="0.2026" stop-color="#E0BE7B"/>
<stop offset="0.2165" stop-color="#D1A468"/>
<stop offset="0.2319" stop-color="#C59159"/>
<stop offset="0.2497" stop-color="#BD834E"/>
<stop offset="0.272" stop-color="#B87B48"/>
<stop offset="0.3128" stop-color="#B77946"/>
<stop offset="0.3308" stop-color="#BF8148"/>
<stop offset="0.4113" stop-color="#E0A24E"/>
<stop offset="0.4553" stop-color="#EDAE50"/>
<stop offset="1" stop-color="#613F1B"/>
</linearGradient>
<radialGradient id="paint25_radial_12854_2042" cx="0" cy="0" r="1" gradientUnits="userSpaceOnUse" gradientTransform="translate(92.6469 22.163) rotate(180) scale(14.2458 14.2458)">
<stop offset="0.002793" stop-color="#B77946" stop-opacity="0"/>
<stop offset="0.9274" stop-color="#B77946"/>
</radialGradient>
<linearGradient id="paint26_linear_12854_2042" x1="19.2854" y1="72.8211" x2="40.5944" y2="72.8211" gradientUnits="userSpaceOnUse">
<stop offset="0.002793" stop-color="#B77946" stop-opacity="0"/>
<stop offset="0.1828" stop-color="#FFF1A3"/>
<stop offset="0.3443" stop-color="#E7C883"/>
<stop offset="0.5097" stop-color="#D2A669"/>
<stop offset="0.6667" stop-color="#C38D56"/>
<stop offset="0.8101" stop-color="#BA7E4A"/>
<stop offset="0.9274" stop-color="#B77946"/>
</linearGradient>
<linearGradient id="paint27_linear_12854_2042" x1="25.9875" y1="87.7223" x2="49.7277" y2="87.7223" gradientUnits="userSpaceOnUse">
<stop offset="0.002793" stop-color="#B77946" stop-opacity="0"/>
<stop offset="0.1828" stop-color="#FFF1A3"/>
<stop offset="0.3443" stop-color="#E7C883"/>
<stop offset="0.5097" stop-color="#D2A669"/>
<stop offset="0.6667" stop-color="#C38D56"/>
<stop offset="0.8101" stop-color="#BA7E4A"/>
<stop offset="0.9274" stop-color="#B77946"/>
</linearGradient>
<linearGradient id="paint28_linear_12854_2042" x1="38.8323" y1="100.846" x2="59.6787" y2="100.846" gradientUnits="userSpaceOnUse">
<stop offset="0.002793" stop-color="#B77946" stop-opacity="0"/>
<stop offset="0.1828" stop-color="#FFF1A3"/>
<stop offset="0.3443" stop-color="#E7C883"/>
<stop offset="0.5097" stop-color="#D2A669"/>
<stop offset="0.6667" stop-color="#C38D56"/>
<stop offset="0.8101" stop-color="#BA7E4A"/>
<stop offset="0.9274" stop-color="#B77946"/>
</linearGradient>
<linearGradient id="paint29_linear_12854_2042" x1="6.8568" y1="60.8684" x2="38.4936" y2="57.4992" gradientUnits="userSpaceOnUse">
<stop stop-color="#B77946"/>
<stop offset="0.2364" stop-color="#FFE794"/>
<stop offset="0.2662" stop-color="#FBDA85"/>
<stop offset="0.3249" stop-color="#F5C76E"/>
<stop offset="0.3877" stop-color="#F0B95D"/>
<stop offset="0.4568" stop-color="#EEB153"/>
<stop offset="0.5447" stop-color="#EDAE50"/>
<stop offset="0.644" stop-color="#EEB052"/>
<stop offset="0.6982" stop-color="#EFB65A"/>
<stop offset="0.7415" stop-color="#F2C168"/>
<stop offset="0.779" stop-color="#F6D17B"/>
<stop offset="0.8125" stop-color="#FCE594"/>
<stop offset="0.8284" stop-color="#FFF1A3"/>
<stop offset="0.857" stop-color="#F7E398"/>
<stop offset="0.911" stop-color="#E1BF7C"/>
<stop offset="0.984" stop-color="#BE844F"/>
<stop offset="0.9972" stop-color="#B77946"/>
</linearGradient>
<radialGradient id="paint30_radial_12854_2042" cx="0" cy="0" r="1" gradientUnits="userSpaceOnUse" gradientTransform="translate(29.2372 72.8102) rotate(-6.07888) scale(37.3614)">
<stop offset="0.002793" stop-color="#B77946" stop-opacity="0"/>
<stop offset="0.9274" stop-color="#B77946"/>
</radialGradient>
<radialGradient id="paint31_radial_12854_2042" cx="0" cy="0" r="1" gradientUnits="userSpaceOnUse" gradientTransform="translate(14.6746 67.3694) rotate(-6.07888) scale(27.2461 27.2461)">
<stop stop-color="#F3E8DE"/>
<stop offset="0.5391" stop-color="#F6EEE7" stop-opacity="0.3616"/>
<stop offset="0.9624" stop-color="#F8F1EB" stop-opacity="0"/>
</radialGradient>
<linearGradient id="paint32_linear_12854_2042" x1="1.93446" y1="77.1322" x2="47.0711" y2="70.7877" gradientUnits="userSpaceOnUse">
<stop stop-color="#B77946"/>
<stop offset="0.2364" stop-color="#FFE794"/>
<stop offset="0.2662" stop-color="#FBDA85"/>
<stop offset="0.3249" stop-color="#F5C76E"/>
<stop offset="0.3877" stop-color="#F0B95D"/>
<stop offset="0.4568" stop-color="#EEB153"/>
<stop offset="0.5447" stop-color="#EDAE50"/>
<stop offset="0.644" stop-color="#EEB052"/>
<stop offset="0.6982" stop-color="#EFB65A"/>
<stop offset="0.7415" stop-color="#F2C168"/>
<stop offset="0.779" stop-color="#F6D17B"/>
<stop offset="0.8125" stop-color="#FCE594"/>
<stop offset="0.8284" stop-color="#FFF1A3"/>
<stop offset="0.857" stop-color="#F7E398"/>
<stop offset="0.911" stop-color="#E1BF7C"/>
<stop offset="0.984" stop-color="#BE844F"/>
<stop offset="0.9972" stop-color="#B77946"/>
</linearGradient>
<radialGradient id="paint33_radial_12854_2042" cx="0" cy="0" r="1" gradientUnits="userSpaceOnUse" gradientTransform="translate(24.5066 73.9683) rotate(-8.00127) scale(21.0222)">
<stop offset="0.002793" stop-color="#B77946" stop-opacity="0"/>
<stop offset="0.9274" stop-color="#B77946"/>
</radialGradient>
<radialGradient id="paint34_radial_12854_2042" cx="0" cy="0" r="1" gradientUnits="userSpaceOnUse" gradientTransform="translate(20.1358 78.9008) scale(28.1944 28.1944)">
<stop stop-color="#F3E8DE"/>
<stop offset="0.5391" stop-color="#F6EEE7" stop-opacity="0.3616"/>
<stop offset="0.9624" stop-color="#F8F1EB" stop-opacity="0"/>
</radialGradient>
<linearGradient id="paint35_linear_12854_2042" x1="13.6393" y1="97.5053" x2="57.9836" y2="89.8371" gradientUnits="userSpaceOnUse">
<stop stop-color="#B77946"/>
<stop offset="0.2364" stop-color="#FFE794"/>
<stop offset="0.2662" stop-color="#FBDA85"/>
<stop offset="0.3249" stop-color="#F5C76E"/>
<stop offset="0.3877" stop-color="#F0B95D"/>
<stop offset="0.4568" stop-color="#EEB153"/>
<stop offset="0.5447" stop-color="#EDAE50"/>
<stop offset="0.644" stop-color="#EEB052"/>
<stop offset="0.6982" stop-color="#EFB65A"/>
<stop offset="0.7415" stop-color="#F2C168"/>
<stop offset="0.779" stop-color="#F6D17B"/>
<stop offset="0.8125" stop-color="#FCE594"/>
<stop offset="0.8284" stop-color="#FFF1A3"/>
<stop offset="0.857" stop-color="#F7E398"/>
<stop offset="0.911" stop-color="#E1BF7C"/>
<stop offset="0.984" stop-color="#BE844F"/>
<stop offset="0.9972" stop-color="#B77946"/>
</linearGradient>
<radialGradient id="paint36_radial_12854_2042" cx="0" cy="0" r="1" gradientUnits="userSpaceOnUse" gradientTransform="translate(35.8115 93.6709) rotate(-9.81084) scale(17.3935 17.3935)">
<stop offset="0.002793" stop-color="#B77946" stop-opacity="0"/>
<stop offset="0.9274" stop-color="#B77946"/>
</radialGradient>
<radialGradient id="paint37_radial_12854_2042" cx="0" cy="0" r="1" gradientUnits="userSpaceOnUse" gradientTransform="translate(26.5689 87.8126) scale(26.4112)">
<stop stop-color="#F3E8DE"/>
<stop offset="0.5391" stop-color="#F6EEE7" stop-opacity="0.3616"/>
<stop offset="0.9624" stop-color="#F8F1EB" stop-opacity="0"/>
</radialGradient>
<linearGradient id="paint38_linear_12854_2042" x1="138.844" y1="72.8211" x2="117.535" y2="72.8211" gradientUnits="userSpaceOnUse">
<stop offset="0.002793" stop-color="#B77946" stop-opacity="0"/>
<stop offset="0.1828" stop-color="#FFF1A3"/>
<stop offset="0.3443" stop-color="#E7C883"/>
<stop offset="0.5097" stop-color="#D2A669"/>
<stop offset="0.6667" stop-color="#C38D56"/>
<stop offset="0.8101" stop-color="#BA7E4A"/>
<stop offset="0.9274" stop-color="#B77946"/>
</linearGradient>
<linearGradient id="paint39_linear_12854_2042" x1="132.141" y1="87.7223" x2="108.401" y2="87.7223" gradientUnits="userSpaceOnUse">
<stop offset="0.002793" stop-color="#B77946" stop-opacity="0"/>
<stop offset="0.1828" stop-color="#FFF1A3"/>
<stop offset="0.3443" stop-color="#E7C883"/>
<stop offset="0.5097" stop-color="#D2A669"/>
<stop offset="0.6667" stop-color="#C38D56"/>
<stop offset="0.8101" stop-color="#BA7E4A"/>
<stop offset="0.9274" stop-color="#B77946"/>
</linearGradient>
<linearGradient id="paint40_linear_12854_2042" x1="119.296" y1="100.846" x2="98.4499" y2="100.846" gradientUnits="userSpaceOnUse">
<stop offset="0.002793" stop-color="#B77946" stop-opacity="0"/>
<stop offset="0.1828" stop-color="#FFF1A3"/>
<stop offset="0.3443" stop-color="#E7C883"/>
<stop offset="0.5097" stop-color="#D2A669"/>
<stop offset="0.6667" stop-color="#C38D56"/>
<stop offset="0.8101" stop-color="#BA7E4A"/>
<stop offset="0.9274" stop-color="#B77946"/>
</linearGradient>
<linearGradient id="paint41_linear_12854_2042" x1="151.272" y1="60.8684" x2="119.635" y2="57.4992" gradientUnits="userSpaceOnUse">
<stop stop-color="#B77946"/>
<stop offset="0.2364" stop-color="#FFE794"/>
<stop offset="0.2662" stop-color="#FBDA85"/>
<stop offset="0.3249" stop-color="#F5C76E"/>
<stop offset="0.3877" stop-color="#F0B95D"/>
<stop offset="0.4568" stop-color="#EEB153"/>
<stop offset="0.5447" stop-color="#EDAE50"/>
<stop offset="0.644" stop-color="#EEB052"/>
<stop offset="0.6982" stop-color="#EFB65A"/>
<stop offset="0.7415" stop-color="#F2C168"/>
<stop offset="0.779" stop-color="#F6D17B"/>
<stop offset="0.8125" stop-color="#FCE594"/>
<stop offset="0.8284" stop-color="#FFF1A3"/>
<stop offset="0.857" stop-color="#F7E398"/>
<stop offset="0.911" stop-color="#E1BF7C"/>
<stop offset="0.984" stop-color="#BE844F"/>
<stop offset="0.9972" stop-color="#B77946"/>
</linearGradient>
<radialGradient id="paint42_radial_12854_2042" cx="0" cy="0" r="1" gradientUnits="userSpaceOnUse" gradientTransform="translate(128.891 72.8103) rotate(-173.921) scale(37.3614)">
<stop offset="0.002793" stop-color="#B77946" stop-opacity="0"/>
<stop offset="0.9274" stop-color="#B77946"/>
</radialGradient>
<radialGradient id="paint43_radial_12854_2042" cx="0" cy="0" r="1" gradientUnits="userSpaceOnUse" gradientTransform="translate(143.455 67.3695) rotate(-173.921) scale(27.2461 27.2461)">
<stop stop-color="#F3E8DE"/>
<stop offset="0.5391" stop-color="#F6EEE7" stop-opacity="0.3616"/>
<stop offset="0.9624" stop-color="#F8F1EB" stop-opacity="0"/>
</radialGradient>
<linearGradient id="paint44_linear_12854_2042" x1="156.194" y1="77.1322" x2="111.058" y2="70.7876" gradientUnits="userSpaceOnUse">
<stop stop-color="#B77946"/>
<stop offset="0.2364" stop-color="#FFE794"/>
<stop offset="0.2662" stop-color="#FBDA85"/>
<stop offset="0.3249" stop-color="#F5C76E"/>
<stop offset="0.3877" stop-color="#F0B95D"/>
<stop offset="0.4568" stop-color="#EEB153"/>
<stop offset="0.5447" stop-color="#EDAE50"/>
<stop offset="0.644" stop-color="#EEB052"/>
<stop offset="0.6982" stop-color="#EFB65A"/>
<stop offset="0.7415" stop-color="#F2C168"/>
<stop offset="0.779" stop-color="#F6D17B"/>
<stop offset="0.8125" stop-color="#FCE594"/>
<stop offset="0.8284" stop-color="#FFF1A3"/>
<stop offset="0.857" stop-color="#F7E398"/>
<stop offset="0.911" stop-color="#E1BF7C"/>
<stop offset="0.984" stop-color="#BE844F"/>
<stop offset="0.9972" stop-color="#B77946"/>
</linearGradient>
<radialGradient id="paint45_radial_12854_2042" cx="0" cy="0" r="1" gradientUnits="userSpaceOnUse" gradientTransform="translate(133.623 73.9683) rotate(-171.999) scale(21.0222)">
<stop offset="0.002793" stop-color="#B77946" stop-opacity="0"/>
<stop offset="0.9274" stop-color="#B77946"/>
</radialGradient>
<radialGradient id="paint46_radial_12854_2042" cx="0" cy="0" r="1" gradientUnits="userSpaceOnUse" gradientTransform="translate(137.993 78.9008) rotate(180) scale(28.1944 28.1944)">
<stop stop-color="#F3E8DE"/>
<stop offset="0.5391" stop-color="#F6EEE7" stop-opacity="0.3616"/>
<stop offset="0.9624" stop-color="#F8F1EB" stop-opacity="0"/>
</radialGradient>
<linearGradient id="paint47_linear_12854_2042" x1="144.489" y1="97.5053" x2="100.145" y2="89.8371" gradientUnits="userSpaceOnUse">
<stop stop-color="#B77946"/>
<stop offset="0.2364" stop-color="#FFE794"/>
<stop offset="0.2662" stop-color="#FBDA85"/>
<stop offset="0.3249" stop-color="#F5C76E"/>
<stop offset="0.3877" stop-color="#F0B95D"/>
<stop offset="0.4568" stop-color="#EEB153"/>
<stop offset="0.5447" stop-color="#EDAE50"/>
<stop offset="0.644" stop-color="#EEB052"/>
<stop offset="0.6982" stop-color="#EFB65A"/>
<stop offset="0.7415" stop-color="#F2C168"/>
<stop offset="0.779" stop-color="#F6D17B"/>
<stop offset="0.8125" stop-color="#FCE594"/>
<stop offset="0.8284" stop-color="#FFF1A3"/>
<stop offset="0.857" stop-color="#F7E398"/>
<stop offset="0.911" stop-color="#E1BF7C"/>
<stop offset="0.984" stop-color="#BE844F"/>
<stop offset="0.9972" stop-color="#B77946"/>
</linearGradient>
<radialGradient id="paint48_radial_12854_2042" cx="0" cy="0" r="1" gradientUnits="userSpaceOnUse" gradientTransform="translate(122.317 93.6709) rotate(-170.189) scale(17.3936 17.3936)">
<stop offset="0.002793" stop-color="#B77946" stop-opacity="0"/>
<stop offset="0.9274" stop-color="#B77946"/>
</radialGradient>
<radialGradient id="paint49_radial_12854_2042" cx="0" cy="0" r="1" gradientUnits="userSpaceOnUse" gradientTransform="translate(131.56 87.8126) rotate(180) scale(26.4112)">
<stop stop-color="#F3E8DE"/>
<stop offset="0.5391" stop-color="#F6EEE7" stop-opacity="0.3616"/>
<stop offset="0.9624" stop-color="#F8F1EB" stop-opacity="0"/>
</radialGradient>
<radialGradient id="paint50_radial_12854_2042" cx="0" cy="0" r="1" gradientUnits="userSpaceOnUse" gradientTransform="translate(118.819 67.1327) rotate(-12.0515) scale(23.2423)">
<stop stop-color="#F3E8DE"/>
<stop offset="0.5391" stop-color="#F6EEE7" stop-opacity="0.3616"/>
<stop offset="0.9624" stop-color="#F8F1EB" stop-opacity="0"/>
</radialGradient>
<radialGradient id="paint51_radial_12854_2042" cx="0" cy="0" r="1" gradientUnits="userSpaceOnUse" gradientTransform="translate(63.3399 31.6544) rotate(-12.0515) scale(23.2423 23.2423)">
<stop stop-color="#F3E8DE"/>
<stop offset="0.5391" stop-color="#F6EEE7" stop-opacity="0.3616"/>
<stop offset="0.9624" stop-color="#F8F1EB" stop-opacity="0"/>
</radialGradient>
<radialGradient id="paint52_radial_12854_2042" cx="0" cy="0" r="1" gradientUnits="userSpaceOnUse" gradientTransform="translate(35.9476 28.5997) rotate(-12.0515) scale(12.478)">
<stop stop-color="#F3E8DE"/>
<stop offset="0.5391" stop-color="#F6EEE7" stop-opacity="0.3616"/>
<stop offset="0.9624" stop-color="#F8F1EB" stop-opacity="0"/>
</radialGradient>
<radialGradient id="paint53_radial_12854_2042" cx="0" cy="0" r="1" gradientUnits="userSpaceOnUse" gradientTransform="translate(121.751 81.4226) rotate(-12.0515) scale(23.2423 23.2423)">
<stop stop-color="#F3E8DE"/>
<stop offset="0.5391" stop-color="#F6EEE7" stop-opacity="0.3616"/>
<stop offset="0.9624" stop-color="#F8F1EB" stop-opacity="0"/>
</radialGradient>
<linearGradient id="paint54_linear_12854_2042" x1="80.0444" y1="46.351" x2="80.0444" y2="82.1037" gradientUnits="userSpaceOnUse">
<stop stop-color="#C8955C"/>
<stop offset="0.265625" stop-color="#FDECA9"/>
<stop offset="0.625" stop-color="#D1A468"/>
<stop offset="1" stop-color="#FEE390"/>
</linearGradient>
<linearGradient id="paint55_linear_12854_2042" x1="80.0444" y1="46.351" x2="80.0444" y2="82.1037" gradientUnits="userSpaceOnUse">
<stop stop-color="#C8955C"/>
<stop offset="0.265625" stop-color="#FDECA9"/>
<stop offset="0.625" stop-color="#D1A468"/>
<stop offset="1" stop-color="#FEE390"/>
</linearGradient>
<linearGradient id="paint56_linear_12854_2042" x1="80.0444" y1="46.351" x2="80.0444" y2="82.1037" gradientUnits="userSpaceOnUse">
<stop stop-color="#C8955C"/>
<stop offset="0.265625" stop-color="#FDECA9"/>
<stop offset="0.625" stop-color="#D1A468"/>
<stop offset="1" stop-color="#FEE390"/>
</linearGradient>
<clipPath id="clip0_12854_2042">
<rect width="157.48" height="125" fill="white"/>
</clipPath>
</defs>
</svg>
