<svg width="25" height="24" viewBox="0 0 25 24" fill="none" xmlns="http://www.w3.org/2000/svg">
<path d="M3.87744 7C3.87744 5.89543 4.77287 5 5.87744 5H19.8774C20.982 5 21.8774 5.89543 21.8774 7V9H17.8774C16.2206 9 14.8774 10.3431 14.8774 12C14.8774 13.6569 16.2206 15 17.8774 15H21.8774V17C21.8774 18.1046 20.982 19 19.8774 19H5.87744C4.77287 19 3.87744 18.1046 3.87744 17V7Z" fill="white"/>
<path fill-rule="evenodd" clip-rule="evenodd" d="M15.8774 12C15.8774 10.8954 16.7729 10 17.8774 10H21.8774C22.4297 10 22.8774 10.4477 22.8774 11V13C22.8774 13.5523 22.4297 14 21.8774 14H17.8774C16.7729 14 15.8774 13.1046 15.8774 12ZM18.8774 12C18.8774 12.5523 18.4297 13 17.8774 13C17.3252 13 16.8774 12.5523 16.8774 12C16.8774 11.4477 17.3252 11 17.8774 11C18.4297 11 18.8774 11.4477 18.8774 12Z" fill="white"/>
</svg>
