<svg width="100" height="100" viewBox="0 0 100 100" fill="none" xmlns="http://www.w3.org/2000/svg">
<g clip-path="url(#clip0_12758_636)">
<path d="M97.5333 43.3228C98.6271 43.1691 99.3934 42.1568 99.1961 41.07C97.6724 32.6758 94.0236 24.7991 88.5833 18.1986C82.7184 11.083 75 5.7278 66.2815 2.72513C57.5629 -0.27754 48.1839 -0.810733 39.1812 1.1845C30.1785 3.17973 21.9029 7.62566 15.2694 14.0308C8.63588 20.4359 3.90279 28.5506 1.59343 37.4779C-0.715932 46.4051 -0.511608 55.7971 2.18381 64.6155C4.87923 73.4339 9.96075 81.3351 16.8666 87.4456C23.2724 93.1138 31.0165 97.0363 39.3522 98.8531C40.4314 99.0883 41.4699 98.358 41.6618 97.2702L42.7041 91.3615C42.896 90.2737 42.1682 89.2413 41.0914 88.9953C34.5715 87.5059 28.5178 84.4024 23.4933 79.9565C17.9686 75.0681 13.9034 68.7471 11.7471 61.6924C9.59071 54.6377 9.42725 47.1241 11.2747 39.9823C13.1222 32.8405 16.9087 26.3487 22.2155 21.2246C27.5224 16.1005 34.1428 12.5438 41.345 10.9476C48.5471 9.35141 56.0503 9.77797 63.0252 12.1801C70 14.5822 76.1747 18.8664 80.8666 24.5589C85.1338 29.7361 88.0233 35.8948 89.2835 42.4628C89.4916 43.5476 90.4978 44.3111 91.5916 44.1574L97.5333 43.3228Z" fill="#24303C"/>
<path d="M98 50C99.1046 50 100.004 50.8958 99.96 51.9995C99.7245 57.8831 98.4513 63.6844 96.194 69.1342C93.6812 75.2005 89.9983 80.7124 85.3553 85.3553C80.7124 89.9983 75.2004 93.6812 69.1342 96.194C63.6844 98.4513 57.8831 99.7245 51.9995 99.96C50.8958 100.004 50 99.1046 50 98L50 92C50 90.8954 50.896 90.0052 51.9992 89.95C56.569 89.7213 61.0709 88.71 65.3073 86.9552C70.1604 84.945 74.5699 81.9986 78.2843 78.2843C81.9986 74.5699 84.945 70.1604 86.9552 65.3073C88.71 61.0709 89.7213 56.569 89.95 51.9992C90.0052 50.896 90.8954 50 92 50H98Z" fill="#C1296A"/>
</g>
<defs>
<clipPath id="clip0_12758_636">
<rect width="100" height="100" rx="40" fill="white"/>
</clipPath>
</defs>
</svg>
