<svg width="20" height="21" viewBox="0 0 20 21" fill="none" xmlns="http://www.w3.org/2000/svg">
<path fill-rule="evenodd" clip-rule="evenodd" d="M9.19107 13.0003C9.65098 12.9829 10.0379 13.3417 10.0552 13.8016C10.0944 14.8384 10.1494 15.5951 10.2034 16.1377C10.2566 16.672 10.5792 16.9935 11.0289 17.0485C11.5591 17.1133 12.307 17.1663 13.3334 17.1663C14.3598 17.1663 15.1078 17.1133 15.638 17.0485C16.0874 16.9935 16.4101 16.6719 16.4634 16.1374C16.5637 15.1303 16.6667 13.3904 16.6667 10.4997C16.6667 7.60899 16.5637 5.86902 16.4634 4.8619C16.4101 4.32745 16.0874 4.00581 15.638 3.95087C15.1078 3.88605 14.3598 3.83301 13.3334 3.83301C12.307 3.83301 11.5591 3.88605 11.0289 3.95086C10.5792 4.00583 10.2566 4.32732 10.2034 4.86165C10.1494 5.40422 10.0944 6.16095 10.0552 7.19778C10.0379 7.65769 9.65098 8.01644 9.19107 7.99908C8.73116 7.98172 8.3724 7.59481 8.38976 7.1349C8.42994 6.07071 8.4869 5.2792 8.54495 4.69643C8.667 3.4713 9.52117 2.45609 10.8266 2.29651C11.4343 2.22223 12.2507 2.16634 13.3334 2.16634C14.4161 2.16634 15.2325 2.22223 15.8402 2.29652C17.1458 2.45612 17.9998 3.4718 18.1218 4.6967C18.2293 5.77524 18.3334 7.5734 18.3334 10.4997C18.3334 13.4259 18.2293 15.2241 18.1218 16.3027C17.9998 17.5275 17.1458 18.5432 15.8402 18.7028C15.2325 18.7771 14.4161 18.833 13.3334 18.833C12.2507 18.833 11.4343 18.7771 10.8266 18.7028C9.52117 18.5433 8.667 17.5281 8.54495 16.3029C8.4869 15.7201 8.42994 14.9286 8.38976 13.8644C8.3724 13.4045 8.73116 13.0176 9.19107 13.0003Z" fill="white"/>
<path fill-rule="evenodd" clip-rule="evenodd" d="M6.00576 12.8274C6.3312 13.1528 6.3312 13.6805 6.00576 14.0059C5.68032 14.3314 5.15269 14.3314 4.82725 14.0059L1.91058 11.0893C1.58514 10.7638 1.58514 10.2362 1.91058 9.91074L4.82725 6.99408C5.15269 6.66864 5.68032 6.66864 6.00576 6.99408C6.3312 7.31951 6.3312 7.84715 6.00576 8.17259L4.51168 9.66667H12.4998C12.9601 9.66667 13.3332 10.0398 13.3332 10.5C13.3332 10.9602 12.9601 11.3333 12.4998 11.3333L4.51168 11.3333L6.00576 12.8274Z" fill="white"/>
</svg>
