<svg width="36" height="36" viewBox="0 0 36 36" fill="none" xmlns="http://www.w3.org/2000/svg">
<g clip-path="url(#clip0_4641_3778)">
<path opacity="0.45" d="M18.1104 35.381C27.6486 35.381 35.3808 27.6487 35.3808 18.1105C35.3808 8.57233 27.6486 0.840088 18.1104 0.840088C8.57221 0.840088 0.839966 8.57233 0.839966 18.1105C0.839966 27.6487 8.57221 35.381 18.1104 35.381Z" fill="#A8A8A8"/>
<path d="M20.2233 17.8258C20.2093 17.9897 20.148 18.146 20.0467 18.2756C19.9455 18.4052 19.8087 18.5025 19.653 18.5557C19.4974 18.6088 19.3297 18.6155 19.1703 18.5749C19.0109 18.5343 18.8668 18.4482 18.7555 18.3271C18.6443 18.206 18.5707 18.0551 18.5437 17.8928C18.5168 17.7306 18.5377 17.564 18.6038 17.4134C18.67 17.2629 18.7785 17.1348 18.9162 17.0449C19.054 16.955 19.2149 16.9071 19.3793 16.9071C19.4952 16.9118 19.6089 16.9392 19.7141 16.988C19.8193 17.0367 19.9138 17.1057 19.9922 17.1911C20.0706 17.2765 20.1314 17.3765 20.1711 17.4854C20.2107 17.5943 20.2284 17.71 20.2233 17.8258ZM16.3587 16.9071C16.1325 16.9319 15.9233 17.0394 15.7714 17.2089C15.6194 17.3784 15.5354 17.598 15.5354 17.8256C15.5354 18.0532 15.6194 18.2729 15.7714 18.4424C15.9233 18.6119 16.1325 18.7193 16.3587 18.7441C16.4746 18.7395 16.5883 18.712 16.6935 18.6633C16.7987 18.6145 16.8932 18.5455 16.9716 18.4601C17.05 18.3748 17.1108 18.2747 17.1505 18.1658C17.1901 18.0569 17.2078 17.9412 17.2027 17.8254C17.2083 17.7095 17.1908 17.5937 17.1513 17.4846C17.1118 17.3755 17.051 17.2754 16.9725 17.1899C16.894 17.1045 16.7994 17.0355 16.694 16.987C16.5886 16.9384 16.4747 16.9113 16.3587 16.9071ZM25.0971 11.6711V26.5167C23.0124 24.6744 23.679 25.2847 21.2577 23.0328L21.6977 24.5636H12.3121C12.0885 24.563 11.8673 24.5183 11.6611 24.4322C11.4548 24.3461 11.2676 24.2201 11.1101 24.0616C10.9525 23.903 10.8278 23.715 10.743 23.5082C10.6582 23.3014 10.615 23.0799 10.6159 22.8564V11.6689C10.6148 11.218 10.7929 10.7851 11.111 10.4654C11.4291 10.1457 11.8611 9.96552 12.3121 9.96436H23.4001C23.6234 9.96482 23.8445 10.0093 24.0507 10.0952C24.2569 10.1811 24.4441 10.3068 24.6017 10.4651C24.7593 10.6234 24.8842 10.8112 24.9692 11.0177C25.0542 11.2243 25.0977 11.4456 25.0971 11.6689V11.6711ZM22.7387 19.5124C22.7119 17.8347 22.3045 16.185 21.5472 14.6878C20.8808 14.1643 20.0682 13.8606 19.2218 13.8188L19.1061 13.9508C19.8596 14.1512 20.5619 14.5093 21.1666 15.0015C20.2226 14.4932 19.1748 14.2075 18.1034 14.1663C17.032 14.1252 15.9653 14.3295 14.9851 14.7639C14.6771 14.9047 14.4967 15.0037 14.4967 15.0037C15.1338 14.4869 15.877 14.1169 16.6733 13.92L16.5906 13.8205C15.7442 13.8624 14.9317 14.166 14.2652 14.6895C13.5082 16.1862 13.1008 17.8353 13.0737 19.5124C13.3591 19.9128 13.7385 20.237 14.1786 20.4563C14.6187 20.6757 15.106 20.7835 15.5975 20.7703C15.5975 20.7703 15.9055 20.3981 16.1519 20.0835C15.5702 19.9368 15.058 19.5914 14.7039 19.1071C14.8258 19.1925 15.0264 19.3029 15.0431 19.3139C15.8286 19.7424 16.6995 19.9908 17.5927 20.0411C18.486 20.0914 19.3793 19.9423 20.2079 19.6048C20.5421 19.4783 20.8609 19.3145 21.1583 19.1164C20.7913 19.6107 20.2614 19.9594 19.6623 20.1011C19.9104 20.4157 20.2083 20.7712 20.2083 20.7712C20.7007 20.7832 21.1886 20.6749 21.6296 20.4555C22.0706 20.2361 22.4513 19.9123 22.7387 19.5124Z" fill="white"/>
</g>
<defs>
<clipPath id="clip0_4641_3778">
<rect width="34.5413" height="34.5413" fill="white" transform="translate(0.839966 0.840088)"/>
</clipPath>
</defs>
</svg>
