<svg width="11" height="14" viewBox="0 0 11 14" fill="none" xmlns="http://www.w3.org/2000/svg">
<path d="M5.5 0C5.08579 0 4.75 0.335786 4.75 0.75V7.89675L1.58624 4.72952C1.28056 4.4235 0.784946 4.4235 0.479262 4.72952C0.173579 5.03553 0.17358 5.53169 0.479263 5.83771L4.90717 10.2705C5.07003 10.4335 5.2868 10.5097 5.50003 10.499C5.71325 10.5097 5.93001 10.4335 6.09285 10.2705L10.5208 5.83771C10.8264 5.53169 10.8264 5.03553 10.5208 4.72951C10.2151 4.42349 9.71947 4.4235 9.41379 4.72952L6.25 7.89678V0.75C6.25 0.335786 5.91421 0 5.5 0Z" fill="#C1296A"/>
<path d="M0.25 12.75C0.25 12.3358 0.585786 12 1 12H10C10.4142 12 10.75 12.3358 10.75 12.75C10.75 13.1642 10.4142 13.5 10 13.5H1C0.585787 13.5 0.25 13.1642 0.25 12.75Z" fill="#C1296A"/>
</svg>
