<svg width="25" height="25" viewBox="0 0 25 25" fill="none" xmlns="http://www.w3.org/2000/svg">
<path d="M20.9275 13.896L19.1802 15.6508L21.2244 17.695C19.4132 20.6974 16.2041 22.5274 12.6493 22.5274C9.09826 22.5274 5.88919 20.6937 4.07797 17.695L6.12217 15.6508L7.52379 14.2492L8.92541 15.6508L12.6493 19.3747L16.3769 15.6508L17.7786 14.2492L19.5259 12.5019L20.9275 11.1003L24.2531 7.77469L23.8623 6.98181C21.7429 2.67549 17.4441 0 12.6455 0C7.85447 0 3.55565 2.67173 1.43631 6.98181L1.04551 7.77469L4.37483 11.1003L6.12217 9.34917L4.07797 7.29746C5.88543 4.29505 9.09826 2.46881 12.6493 2.46881C16.2041 2.46881 19.4132 4.29505 21.2244 7.29746L19.1802 9.34165L17.7786 10.7433L16.3769 9.34917L12.6493 5.62153L8.92541 9.34917L7.52379 10.7433L5.77645 12.4944L4.37483 13.8922L1.04175 17.2253L1.43255 18.0219C3.55565 22.3245 7.85447 25 12.6493 25C17.4479 25 21.7467 22.3245 23.8698 18.0219L24.2606 17.2253L20.9275 13.896ZM10.6727 11.0965L12.6493 9.11995L14.6258 11.0965L16.0275 12.4981L14.6296 13.8997L12.6493 15.8763L9.27112 12.4981L10.6727 11.0965Z" fill="#FF2F00"/>
</svg>
