<svg width="99" height="98" viewBox="0 0 99 98" fill="none" xmlns="http://www.w3.org/2000/svg">
<path fill-rule="evenodd" clip-rule="evenodd" d="M79.8049 42.2887V37.8159C79.8049 36.5986 79.3211 35.4302 78.459 34.5681C77.5969 33.7076 76.4285 33.2222 75.2112 33.2222C69.7278 33.2222 60.6949 33.2222 55.8592 33.2222C53.8885 33.2222 52.1383 34.4793 51.5074 36.3459L51.071 37.695H23.1487C21.9298 37.695 20.7615 38.1788 19.8994 39.0409C19.0388 39.9015 18.5549 41.0698 18.5549 42.2887H79.8049Z" fill="#B38465"/>
<path fill-rule="evenodd" clip-rule="evenodd" d="M18.3391 76.2823C18.3391 76.2823 19.532 83.9141 20.3711 89.2903C20.8963 92.6437 23.7842 95.1167 27.1806 95.1167H71.8196C75.2159 95.1167 78.1038 92.6437 78.629 89.2903C80.0071 80.4672 82.8124 62.5103 84.3712 52.5403C84.6805 50.5512 84.1063 48.5254 82.7971 46.9956C81.4879 45.4659 79.5753 44.5854 77.5617 44.5854C64.0546 44.5854 34.9455 44.5854 21.4384 44.5854C19.4248 44.5854 17.5122 45.4659 16.203 46.9956C14.8938 48.5254 14.3196 50.5512 14.6289 52.5403C15.883 60.5656 17.7572 72.5583 17.7572 72.5583C17.8231 72.9748 18.2151 73.2612 18.6316 73.1969C19.0496 73.131 19.336 72.739 19.2701 72.321L16.1418 52.303C15.9014 50.7564 16.3485 49.1807 17.3652 47.9909C18.3835 46.8012 19.8719 46.1167 21.4384 46.1167H77.5617C79.1282 46.1167 80.6166 46.8012 81.6349 47.9909C82.6516 49.1807 83.0987 50.7564 82.8583 52.303C81.2995 62.2729 78.4943 80.2299 77.1161 89.053C76.7073 91.6622 74.461 93.5854 71.8196 93.5854C61.2953 93.5854 37.7048 93.5854 27.1806 93.5854C24.5392 93.5854 22.2928 91.6622 21.884 89.053C21.0448 83.6783 19.852 76.0465 19.852 76.0465C19.7877 75.6285 19.3957 75.3421 18.9777 75.408C18.5596 75.4738 18.2748 75.8658 18.3391 76.2823Z" fill="#716C69"/>
<path fill-rule="evenodd" clip-rule="evenodd" d="M26.8606 83.3627V84.9292C26.8606 87.0439 28.5756 88.7573 30.6887 88.7573H42.9387C45.0534 88.7573 46.7668 87.0439 46.7668 84.9292V81.8667C46.7668 79.7536 45.0534 78.0386 42.9387 78.0386H30.6887C29.6352 78.0386 28.6797 78.4658 27.9861 79.1564C27.6875 79.455 27.6875 79.9389 27.9845 80.239C28.2831 80.5376 28.7685 80.5391 29.0671 80.2405C29.4836 79.8255 30.0563 79.5698 30.6887 79.5698H42.9387C44.2081 79.5698 45.2356 80.5988 45.2356 81.8667V84.9292C45.2356 86.1986 44.2081 87.2261 42.9403 87.2261C42.9387 87.2261 30.6887 87.2261 30.6887 87.2261C29.4208 87.2261 28.3934 86.1986 28.3918 84.9292V83.3627C28.3918 82.9416 28.0488 82.5971 27.6262 82.5971C27.2051 82.5971 26.8606 82.9416 26.8606 83.3627Z" fill="#716C69"/>
<path fill-rule="evenodd" clip-rule="evenodd" d="M36.6054 34.2878C37.0938 33.438 37.7523 32.6662 38.5638 31.9955C38.89 31.726 38.9344 31.2422 38.6664 30.9175C38.3969 30.5914 37.913 30.5454 37.5884 30.8149C36.6299 31.6066 35.8566 32.5208 35.2778 33.5237C35.0664 33.8897 35.1935 34.3583 35.5595 34.5696C35.9255 34.7793 36.394 34.6538 36.6054 34.2878Z" fill="#716C69"/>
<path fill-rule="evenodd" clip-rule="evenodd" d="M41.51 30.282C42.738 29.792 44.1376 29.4567 45.6918 29.3005C46.1114 29.2592 46.4192 28.884 46.3763 28.4629C46.3349 28.0434 45.9598 27.7356 45.5387 27.7769C43.8314 27.9484 42.294 28.322 40.9434 28.858C40.5514 29.0142 40.3585 29.4598 40.5147 29.8533C40.6709 30.2453 41.1164 30.4382 41.51 30.282Z" fill="#716C69"/>
<path fill-rule="evenodd" clip-rule="evenodd" d="M49.4418 29.2715C51.2533 29.4077 52.9101 29.4368 54.423 29.3725C54.8456 29.3557 55.1733 28.9989 55.1565 28.5763C55.1381 28.1536 54.7813 27.826 54.3587 27.8428C52.8994 27.904 51.3023 27.875 49.5582 27.7433C49.1356 27.7126 48.7681 28.0281 48.7359 28.4492C48.7053 28.8718 49.0208 29.2393 49.4418 29.2715Z" fill="#716C69"/>
<path fill-rule="evenodd" clip-rule="evenodd" d="M58.556 28.9192C60.3429 28.5839 61.8558 28.0877 63.1283 27.4768C63.5096 27.293 63.6703 26.8352 63.4881 26.4554C63.3044 26.0742 62.8465 25.9134 62.4652 26.0956C61.3 26.656 59.9111 27.1077 58.2742 27.4155C57.8577 27.4936 57.5852 27.8933 57.6632 28.3082C57.7413 28.7247 58.141 28.9973 58.556 28.9192Z" fill="#716C69"/>
<path fill-rule="evenodd" clip-rule="evenodd" d="M66.2489 25.35C67.6209 24.0255 68.4263 22.5003 68.7892 20.9492C68.8857 20.5373 68.6299 20.1254 68.218 20.0289C67.8077 19.9324 67.3942 20.1881 67.2993 20.6001C66.9976 21.8878 66.3239 23.1496 65.1862 24.2475C64.8814 24.5415 64.8738 25.0269 65.1663 25.3301C65.4603 25.6348 65.9457 25.644 66.2489 25.35Z" fill="#716C69"/>
<path fill-rule="evenodd" clip-rule="evenodd" d="M68.4247 15.6769C67.8183 14.063 66.7863 12.6925 65.5322 11.8258C65.1846 11.5869 64.7068 11.6742 64.4664 12.0218C64.2276 12.3694 64.3148 12.8471 64.6624 13.086C65.6792 13.7873 66.4999 14.9082 66.9915 16.2159C67.14 16.611 67.5825 16.8116 67.9776 16.663C68.3726 16.5145 68.5732 16.072 68.4247 15.6769Z" fill="#716C69"/>
<path fill-rule="evenodd" clip-rule="evenodd" d="M48.4757 11.8228C49.3178 7.87833 52.6682 5.95967 55.0845 5.94589C55.8762 5.9413 56.5637 6.12811 56.922 6.60586C57.1318 6.88914 57.1961 7.26889 57.1165 7.73439C57.0445 8.15089 57.3232 8.54749 57.7397 8.61946C58.1562 8.69143 58.5528 8.41121 58.6248 7.99471C58.7902 7.03768 58.5819 6.27052 58.1486 5.69017C57.5391 4.87402 56.4259 4.40699 55.0753 4.41464C52.1353 4.43149 48.0025 6.70233 46.9781 11.5043C46.8893 11.9178 47.1542 12.3235 47.5676 12.4124C47.9811 12.5012 48.3868 12.2363 48.4757 11.8228Z" fill="#716C69"/>
<path fill-rule="evenodd" clip-rule="evenodd" d="M46.9858 11.8259C48.0209 16.6034 52.14 18.8635 55.0723 18.8819C56.5255 18.8895 57.703 18.349 58.2803 17.4134C58.6263 16.8499 58.7779 16.1317 58.6171 15.2543C58.4166 14.1748 57.7061 12.7921 56.2192 11.149C55.9359 10.8367 55.4521 10.8122 55.1382 11.0954C54.8258 11.3787 54.8013 11.8641 55.0846 12.178C56.1212 13.3219 56.7352 14.2973 57.0032 15.1165C57.2084 15.7413 57.2023 16.242 56.9757 16.611C56.772 16.9418 56.403 17.1439 55.962 17.2541C55.4061 17.3919 54.7385 17.3812 54.0372 17.2327C51.7893 16.758 49.2137 14.8792 48.4818 11.5012C48.393 11.0878 47.9842 10.8259 47.5707 10.9148C47.1588 11.0051 46.8954 11.4124 46.9858 11.8259Z" fill="#716C69"/>
<path fill-rule="evenodd" clip-rule="evenodd" d="M47.5264 13.1948H57.7781C58.6233 13.1948 59.3093 12.5088 59.3093 11.6636C59.3093 10.8183 58.6233 10.1323 57.7781 10.1323H47.5264C46.6811 10.1323 45.9951 10.8183 45.9951 11.6636C45.9951 12.5088 46.6811 13.1948 47.5264 13.1948Z" fill="#B38465"/>
</svg>
