<svg width="16" height="16" viewBox="0 0 16 16" fill="none" xmlns="http://www.w3.org/2000/svg">
<path fill-rule="evenodd" clip-rule="evenodd" d="M7.99967 1.33301C11.6816 1.33301 14.6663 4.31778 14.6663 7.99967C14.6663 11.6816 11.6816 14.6663 7.99967 14.6663C4.31778 14.6663 1.33301 11.6816 1.33301 7.99967C1.33301 4.31778 4.31778 1.33301 7.99967 1.33301ZM7.99967 2.66634C5.05416 2.66634 2.66634 5.05416 2.66634 7.99967C2.66634 10.9452 5.05416 13.333 7.99967 13.333C10.9452 13.333 13.333 10.9452 13.333 7.99967C13.333 5.05416 10.9452 2.66634 7.99967 2.66634ZM7.99967 10.6663C8.36786 10.6663 8.66634 10.9648 8.66634 11.333C8.66634 11.7012 8.36786 11.9997 7.99967 11.9997C7.63148 11.9997 7.33301 11.7012 7.33301 11.333C7.33301 10.9648 7.63148 10.6663 7.99967 10.6663ZM7.99967 3.99967C9.47243 3.99967 10.6663 5.19358 10.6663 6.66634C10.6663 7.86288 9.87828 8.87536 8.79287 9.21305L8.66634 9.249V9.33301C8.66634 9.7012 8.36786 9.99967 7.99967 9.99967C7.65778 9.99967 7.376 9.74231 7.33749 9.41076L7.33301 9.33301V8.66634C7.33301 8.32445 7.59037 8.04267 7.92193 8.00416L8.09918 7.99602C8.78909 7.94512 9.33301 7.36925 9.33301 6.66634C9.33301 5.92996 8.73605 5.33301 7.99967 5.33301C7.26329 5.33301 6.66634 5.92996 6.66634 6.66634C6.66634 7.03453 6.36786 7.33301 5.99967 7.33301C5.63148 7.33301 5.33301 7.03453 5.33301 6.66634C5.33301 5.19358 6.52692 3.99967 7.99967 3.99967Z" fill="#C8CACC"/>
</svg>
