<svg width="64" height="64" viewBox="0 0 64 64" fill="none" xmlns="http://www.w3.org/2000/svg">
<g clip-path="url(#clip0_12910_3770)">
<path fill-rule="evenodd" clip-rule="evenodd" d="M32 64C49.6731 64 64 49.6731 64 32C64 14.3269 49.6731 0 32 0C14.3269 0 0 14.3269 0 32C0 49.6731 14.3269 64 32 64ZM43.3137 20.6863C44.5634 19.4366 46.5895 19.4366 47.8392 20.6863C49.0889 21.936 49.0889 23.9621 47.8392 25.2118L29.7492 43.3018L29.7373 43.3137C29.4141 43.6369 29.039 43.8765 28.6387 44.0326C28.0718 44.2536 27.4545 44.3069 26.8634 44.1924C26.2582 44.0752 25.6804 43.7823 25.2118 43.3137L25.1997 43.3015L16.1609 34.2627C14.9112 33.0131 14.9112 30.9869 16.1609 29.7373C17.4106 28.4876 19.4367 28.4876 20.6864 29.7373L27.4746 36.5255L43.3137 20.6863Z" fill="#00B140"/>
</g>
<defs>
<clipPath id="clip0_12910_3770">
<rect width="64" height="64" fill="white"/>
</clipPath>
</defs>
</svg>
