<svg width="64" height="64" viewBox="0 0 64 64" fill="none" xmlns="http://www.w3.org/2000/svg">
<g clip-path="url(#clip0_12910_3784)">
<path fill-rule="evenodd" clip-rule="evenodd" d="M32 64C49.6731 64 64 49.6731 64 32C64 14.3269 49.6731 0 32 0C14.3269 0 0 14.3269 0 32C0 49.6731 14.3269 64 32 64ZM43.3137 20.6863C44.5634 21.936 44.5634 23.9621 43.3137 25.2118L36.5255 32L43.3137 38.7882C44.5634 40.0379 44.5634 42.064 43.3137 43.3137C42.064 44.5634 40.0379 44.5634 38.7882 43.3137L32 36.5255L25.2118 43.3137C23.9621 44.5634 21.936 44.5634 20.6863 43.3137C19.4366 42.064 19.4366 40.0379 20.6863 38.7882L27.4745 32L20.6863 25.2118C19.4366 23.9621 19.4366 21.936 20.6863 20.6863C21.936 19.4366 23.9621 19.4366 25.2118 20.6863L32 27.4745L38.7882 20.6863C40.0379 19.4366 42.064 19.4366 43.3137 20.6863Z" fill="#F44336"/>
</g>
<defs>
<clipPath id="clip0_12910_3784">
<rect width="64" height="64" fill="white"/>
</clipPath>
</defs>
</svg>
