<svg width="20" height="20" viewBox="0 0 20 20" fill="none" xmlns="http://www.w3.org/2000/svg">
<path d="M5.23621 7.59376H0.590539C0.352414 7.59376 0.137609 7.45075 0.0457334 7.23107C-0.0461028 7.01138 0.00288172 6.75802 0.170109 6.58853L4.87481 1.81844C4.98578 1.7059 5.13723 1.64258 5.29528 1.64258H7.61809C7.8227 1.64258 8.01274 1.74848 8.12036 1.92254C8.22798 2.09656 8.23782 2.31387 8.14641 2.49695L5.76453 7.26704C5.66457 7.46728 5.46 7.59376 5.23621 7.59376Z" fill="#BA3C77"/>
<path d="M19.4091 7.59376H14.7635C14.5396 7.59376 14.3351 7.46728 14.2351 7.26704L11.8532 2.49695C11.7618 2.31387 11.7717 2.09656 11.8793 1.92254C11.9868 1.74852 12.177 1.64258 12.3815 1.64258H14.7044C14.8624 1.64258 15.0138 1.70594 15.1248 1.81844L19.8296 6.58853C19.9967 6.75806 20.0458 7.01146 19.9539 7.23107C19.8621 7.45079 19.6473 7.59376 19.4091 7.59376Z" fill="#D74084"/>
<path d="M4.57617 6.98786L7.6184 1.64258H12.3822L15.4151 6.98786H4.57617Z" fill="#FF9CC9"/>
<path d="M14.1246 6.98832L9.4598 17.5276C9.34164 17.7945 9.43621 18.1077 9.68238 18.2646C9.78023 18.3269 9.89031 18.3572 9.99953 18.3572C10.1651 18.3572 10.3287 18.2877 10.4444 18.1553L19.8538 7.39234C19.9533 7.27859 20.003 7.13379 19.9992 6.98828H14.1246V6.98832Z" fill="#712043"/>
<path d="M5.87486 6.98828H0.000197528C-0.00355248 7.13375 0.0461351 7.27859 0.145588 7.39234L9.55502 18.1553C9.67076 18.2877 9.83436 18.3572 9.99991 18.3572C10.1091 18.3572 10.2192 18.327 10.3171 18.2646C10.5631 18.1077 10.6578 17.7945 10.5396 17.5276L5.87486 6.98828Z" fill="#712545"/>
<path d="M4.57617 6.98828L9.46032 18.0056C9.55489 18.2194 9.76661 18.3572 10.0003 18.3572C10.234 18.3572 10.4458 18.2194 10.5403 18.0056L15.4151 6.98828H4.57617Z" fill="#BA3C77"/>
<path d="M9.99512 6.98786H15.4146L12.3816 1.64258H9.99512V6.98786Z" fill="#712545"/>
<path d="M10 18.3572C10.2337 18.3572 10.4454 18.2194 10.54 18.0056L15.4148 6.98828H10V18.3572Z" fill="#D74084"/>
</svg>
