<svg width="40" height="40" viewBox="0 0 40 40" fill="none" xmlns="http://www.w3.org/2000/svg">
<rect x="0.5" y="0.5" width="39" height="39" rx="2.5" stroke="#E6E8EC"/>
<path d="M20.1718 11.2588C16.5175 11.2588 13.0474 10.9275 11.722 14.3944C11.1745 15.8263 11.254 17.6859 11.254 20.3487C11.254 22.6853 11.1806 24.8814 11.722 26.302C13.0444 29.771 16.5427 29.4387 20.1698 29.4387C23.669 29.4387 27.277 29.81 28.6186 26.302C29.167 24.8557 29.0865 23.0238 29.0865 20.3487C29.0865 16.7977 29.2788 14.5052 27.589 12.784C25.8781 11.0403 23.5644 11.2588 20.1678 11.2588H20.1718ZM19.3727 12.8968C26.9952 12.8845 27.9654 12.0209 27.43 24.0188C27.2398 28.2622 24.0696 27.7965 20.1728 27.7965C13.0676 27.7965 12.8633 27.5893 12.8633 20.3446C12.8633 13.0158 13.4269 12.901 19.3727 12.8948V12.8968ZM24.9321 14.4057C24.3413 14.4057 23.8623 14.8939 23.8623 15.496C23.8623 16.0981 24.3413 16.5864 24.9321 16.5864C25.5228 16.5864 26.0019 16.0981 26.0019 15.496C26.0019 14.8939 25.5228 14.4057 24.9321 14.4057ZM20.1718 15.6807C17.6427 15.6807 15.5926 17.7711 15.5926 20.3487C15.5926 22.9264 17.6427 25.0158 20.1718 25.0158C22.7009 25.0158 24.7499 22.9264 24.7499 20.3487C24.7499 17.7711 22.7009 15.6807 20.1718 15.6807ZM20.1718 17.3187C24.1018 17.3187 24.1068 23.3787 20.1718 23.3787C16.2428 23.3787 16.2367 17.3187 20.1718 17.3187Z" fill="white"/>
</svg>
