<svg width="27" height="28" viewBox="0 0 27 28" fill="none" xmlns="http://www.w3.org/2000/svg">
<g clip-path="url(#clip0_13900_4935)">
<path d="M26.1376 12.838C25.3094 21.9915 13.103 28.0045 13.103 28.0045C13.103 28.0045 0.898846 21.9937 0.0706124 12.838C-0.757621 3.6824 5.97346 1.83789 5.97346 1.83789C6.93376 5.18567 13.103 1.83789 13.103 1.83789C13.103 1.83789 19.2744 5.18567 20.2325 1.83789C20.2347 1.83789 26.9658 3.6824 26.1376 12.838Z" fill="url(#paint0_linear_13900_4935)"/>
<path d="M13.1052 19.036V28.002C13.1052 28.002 0.901071 21.9912 0.0728377 12.8378C-0.750919 3.75127 5.87495 1.86438 5.9712 1.83984C5.93763 1.88222 5.39816 2.59817 5.34667 3.85609C3.79541 4.75716 1.16073 7.12581 1.66663 12.6928C2.04269 16.8457 5.16312 20.3586 8.14924 22.8097C8.63274 23.209 9.34682 23.1554 9.76765 22.6915L13.1052 19.036Z" fill="url(#paint1_linear_13900_4935)"/>
<path d="M13.1052 1.83789V3.61995C12.0285 4.12178 10.0318 4.92025 8.24997 4.92025C7.03896 4.92025 6.04284 4.54555 5.34668 3.85637C5.4004 2.60068 5.93987 1.88473 5.97121 1.84012C5.97345 1.83789 5.97345 1.83789 5.97345 1.83789C6.93375 5.18567 13.1052 1.83789 13.1052 1.83789Z" fill="url(#paint2_linear_13900_4935)"/>
<path d="M20.8618 3.85637C20.1656 4.54555 19.1695 4.92025 17.9585 4.92025C16.1766 4.92025 14.1822 4.12178 13.1055 3.61995V1.83789C13.1055 1.83789 19.2747 5.18567 20.235 1.83789C20.235 1.83789 20.235 1.83789 20.2372 1.84012C20.2686 1.8825 20.808 2.59845 20.8618 3.85637Z" fill="url(#paint3_linear_13900_4935)"/>
<path d="M26.1381 12.8358C25.3099 21.9915 13.1035 28.0001 13.1035 28.0001V19.034L16.4456 22.6963C16.8664 23.1602 17.5805 23.2115 18.064 22.8145C21.0456 20.3655 24.166 16.8572 24.5421 12.6931C25.048 7.1194 22.4066 4.75075 20.8598 3.85414C20.8061 2.59845 20.2666 1.8825 20.233 1.83789C20.3315 1.86466 26.9619 3.75154 26.1381 12.8358Z" fill="url(#paint4_linear_13900_4935)"/>
<path d="M26.1381 12.8358C25.3099 21.9915 13.1035 28.0001 13.1035 28.0001V19.034L16.4456 22.6963C16.8664 23.1602 17.5805 23.2115 18.064 22.8145C21.0456 20.3655 24.166 16.8572 24.5421 12.6931C25.048 7.1194 22.4066 4.75075 20.8598 3.85414C20.8061 2.59845 20.2666 1.8825 20.233 1.83789C20.3315 1.86466 26.9619 3.75154 26.1381 12.8358Z" fill="url(#paint5_linear_13900_4935)"/>
<path d="M20.8619 3.85361C20.1658 4.54279 19.1696 4.91749 17.9586 4.91749C16.1768 4.91749 14.1823 4.11902 13.1056 3.61719C12.0289 4.11902 10.0322 4.91749 8.25038 4.91749C7.03937 4.91749 6.04325 4.54279 5.34709 3.85361C3.79583 4.75467 1.16115 7.12332 1.66704 12.6903C2.04311 16.841 5.15905 20.3516 8.14293 22.8028C8.63092 23.202 9.34499 23.1552 9.76806 22.6913L12.7788 19.3903C12.9534 19.1985 13.2534 19.1985 13.428 19.3903L16.4454 22.6957C16.8707 23.1619 17.5848 23.2087 18.0705 22.8072C21.0499 20.3583 24.1659 16.8499 24.542 12.6903C25.0501 7.11663 22.4087 4.74798 20.8619 3.85361Z" fill="url(#paint6_linear_13900_4935)"/>
<path d="M20.8619 3.85361C20.1658 4.54279 19.1696 4.91749 17.9586 4.91749C16.1768 4.91749 14.1823 4.11902 13.1056 3.61719C12.0289 4.11902 10.0322 4.91749 8.25038 4.91749C7.03937 4.91749 6.04325 4.54279 5.34709 3.85361C3.79583 4.75467 1.16115 7.12332 1.66704 12.6903C2.04311 16.841 5.15905 20.3516 8.14293 22.8028C8.63092 23.202 9.34499 23.1552 9.76806 22.6913L12.7788 19.3903C12.9534 19.1985 13.2534 19.1985 13.428 19.3903L16.4454 22.6957C16.8707 23.1619 17.5848 23.2087 18.0705 22.8072C21.0499 20.3583 24.1659 16.8499 24.542 12.6903C25.0501 7.11663 22.4087 4.74798 20.8619 3.85361Z" stroke="url(#paint7_linear_13900_4935)" stroke-width="0.181866" stroke-miterlimit="10"/>
<path d="M17.3161 22.6331C17.1079 22.6331 16.9154 22.5484 16.7767 22.3945L13.7614 19.0891C13.5935 18.9062 13.354 18.7991 13.1056 18.7991C12.8571 18.7991 12.6176 18.9039 12.4497 19.0891L9.43895 22.3878C9.30017 22.5417 9.10766 22.6264 8.89948 22.6264C8.72936 22.6264 8.56147 22.5662 8.4294 22.4569C5.75219 20.26 2.48403 16.7739 2.11244 12.65C1.66027 7.67405 3.79353 5.3857 5.29554 4.40657C6.0611 5.0333 7.07289 5.36116 8.24809 5.36116C10.0254 5.36116 11.9841 4.61176 13.1033 4.10547C14.2226 4.61176 16.1835 5.36116 17.9563 5.36116C19.1338 5.36116 20.1455 5.03107 20.9111 4.40434C22.4131 5.38124 24.5486 7.66513 24.0964 12.6478C23.7226 16.7806 20.4589 20.2667 17.7862 22.4614C17.6541 22.5729 17.4885 22.6331 17.3161 22.6331Z" fill="url(#paint8_radial_13900_4935)"/>
<path d="M20.924 4.95702C20.1182 5.51461 19.0997 5.80902 17.9581 5.80902C16.2456 5.80902 14.4056 5.16891 13.1051 4.5957C11.8023 5.16668 9.96224 5.80902 8.24981 5.80902C7.1082 5.80902 6.09193 5.51684 5.28608 4.95702C3.76392 6.06105 2.16566 8.26465 2.55963 12.6094C2.64245 13.5283 2.87973 14.416 3.22221 15.2658C10.0003 13.6666 16.8142 10.5352 21.9828 5.92723C21.6426 5.53692 21.2822 5.21574 20.924 4.95702Z" fill="url(#paint9_radial_13900_4935)"/>
<path d="M3.2207 15.266C4.36232 18.0829 6.706 20.4672 8.71167 22.1132C8.76315 22.1556 8.83031 22.1801 8.89746 22.1801C8.98028 22.1801 9.05192 22.1489 9.10564 22.0887L12.1164 18.79C12.3693 18.5134 12.7297 18.3551 13.1035 18.3551C13.4774 18.3551 13.8378 18.5134 14.0907 18.79L17.1082 22.0954C17.1641 22.1556 17.2358 22.1868 17.3163 22.1868C17.3835 22.1868 17.4484 22.1623 17.5021 22.1199C20.11 19.9788 23.2908 16.5908 23.6512 12.6119C23.9534 9.2797 23.0849 7.21215 21.9791 5.92969C16.8127 10.5376 9.99879 13.6668 3.2207 15.266Z" fill="url(#paint10_radial_13900_4935)"/>
<path d="M13.6464 25.4853L14.8575 23.9843C15.0634 23.7278 15.0612 23.362 14.8507 23.1077L13.6397 21.6513C13.3622 21.3168 12.8473 21.3168 12.5697 21.6513L11.3587 23.1077C11.1483 23.362 11.1461 23.7278 11.352 23.9843L12.563 25.4853C12.8406 25.831 13.3666 25.831 13.6464 25.4853Z" fill="url(#paint11_linear_13900_4935)"/>
<path d="M13.1053 25.298C13.0605 25.298 12.9777 25.2869 12.9128 25.2066L11.7018 23.7056C11.6279 23.6141 11.6301 23.4825 11.704 23.3933L12.915 21.9369C12.9799 21.8588 13.0627 21.8477 13.1053 21.8477C13.1478 21.8477 13.2306 21.8588 13.2955 21.9369L14.5066 23.3933C14.5804 23.4825 14.5827 23.6141 14.5088 23.7056L13.2978 25.2066C13.2329 25.2869 13.1478 25.298 13.1053 25.298Z" fill="url(#paint12_radial_13900_4935)"/>
<path d="M13.123 22.0801H13.0871L11.8761 23.5365C11.8694 23.5454 11.8694 23.5588 11.8761 23.5655L12.091 23.8309C12.7805 23.7082 13.4319 23.4897 14.0183 23.1529L13.123 22.0801Z" fill="url(#paint13_radial_13900_4935)"/>
<path d="M13.1053 25.298C13.0605 25.298 12.9777 25.2869 12.9128 25.2066L11.7018 23.7056C11.6279 23.6141 11.6301 23.4825 11.704 23.3933L12.915 21.9369C12.9799 21.8588 13.0627 21.8477 13.1053 21.8477C13.1478 21.8477 13.2306 21.8588 13.2955 21.9369L14.5066 23.3933C14.5804 23.4825 14.5827 23.6141 14.5088 23.7056L13.2978 25.2066C13.2329 25.2869 13.1478 25.298 13.1053 25.298Z" stroke="url(#paint14_linear_13900_4935)" stroke-width="0.112" stroke-miterlimit="10"/>
<path d="M6.4276 10.5337C9.34644 10.5337 11.7126 8.17612 11.7126 5.26784C11.7126 2.35957 9.34644 0.00195312 6.4276 0.00195312C3.50876 0.00195312 1.14258 2.35957 1.14258 5.26784C1.14258 8.17612 3.50876 10.5337 6.4276 10.5337Z" fill="url(#paint15_radial_13900_4935)"/>
<path d="M12.4649 26.3424C14.9572 26.3424 16.9777 24.3293 16.9777 21.846C16.9777 19.3627 14.9572 17.3496 12.4649 17.3496C9.97258 17.3496 7.95215 19.3627 7.95215 21.846C7.95215 24.3293 9.97258 26.3424 12.4649 26.3424Z" fill="url(#paint16_radial_13900_4935)"/>
<path d="M7.62567 11.2573V13.4965C7.62567 13.7204 7.68076 13.8928 7.79094 14.0137C7.90113 14.1345 8.06285 14.1949 8.27611 14.1949C8.48937 14.1949 8.65287 14.1345 8.76661 14.0137C8.88035 13.8928 8.93722 13.7204 8.93722 13.4965V11.2573H9.84891V13.4912C9.84891 13.8253 9.77783 14.1079 9.63565 14.3389C9.49348 14.5699 9.30154 14.7441 9.05985 14.8614C8.82171 14.9787 8.55513 15.0373 8.26012 15.0373C7.96511 15.0373 7.70031 14.9805 7.46572 14.8667C7.23469 14.7494 7.05164 14.5753 6.91657 14.3442C6.78151 14.1096 6.71397 13.8253 6.71397 13.4912V11.2573H7.62567ZM11.8433 15.0373C11.5696 15.0373 11.3244 14.9929 11.1076 14.904C10.8908 14.8152 10.7166 14.6837 10.5851 14.5095C10.4571 14.3353 10.3896 14.1256 10.3825 13.8804H11.3528C11.367 14.019 11.415 14.1256 11.4968 14.2003C11.5785 14.2714 11.6852 14.3069 11.8167 14.3069C11.9517 14.3069 12.0584 14.2767 12.1366 14.2163C12.2148 14.1523 12.2538 14.0652 12.2538 13.955C12.2538 13.8626 12.2219 13.7862 12.1579 13.7258C12.0975 13.6653 12.021 13.6156 11.9286 13.5765C11.8398 13.5374 11.7118 13.493 11.5448 13.4432C11.3031 13.3686 11.1058 13.2939 10.953 13.2193C10.8001 13.1446 10.6686 13.0344 10.5584 12.8887C10.4482 12.743 10.3931 12.5528 10.3931 12.3182C10.3931 11.9699 10.5193 11.698 10.7717 11.5025C11.024 11.3035 11.3528 11.204 11.758 11.204C12.1703 11.204 12.5027 11.3035 12.755 11.5025C13.0074 11.698 13.1424 11.9717 13.1602 12.3236H12.1739C12.1668 12.2027 12.1223 12.1085 12.0406 12.041C11.9588 11.9699 11.854 11.9344 11.726 11.9344C11.6158 11.9344 11.527 11.9646 11.4595 12.025C11.3919 12.0819 11.3582 12.1654 11.3582 12.2756C11.3582 12.3964 11.415 12.4906 11.5288 12.5582C11.6425 12.6257 11.8202 12.6986 12.0619 12.7768C12.3036 12.8585 12.4991 12.9367 12.6484 13.0113C12.8012 13.086 12.9327 13.1944 13.0429 13.3366C13.1531 13.4787 13.2082 13.6618 13.2082 13.8857C13.2082 14.099 13.1531 14.2927 13.0429 14.4668C12.9363 14.641 12.7799 14.7796 12.5737 14.8827C12.3676 14.9858 12.1241 15.0373 11.8433 15.0373ZM14.6809 11.9877V12.7448H15.9019V13.4485H14.6809V14.2696H16.0618V15H13.7693V11.2573H16.0618V11.9877H14.6809ZM18.5624 15L17.784 13.5871H17.5654V15H16.6537V11.2573H18.1838C18.4789 11.2573 18.7294 11.3088 18.9356 11.4119C19.1453 11.515 19.3017 11.6571 19.4048 11.8384C19.5078 12.0161 19.5594 12.2152 19.5594 12.4355C19.5594 12.6843 19.4883 12.9065 19.3461 13.102C19.2075 13.2975 19.0013 13.4361 18.7277 13.5178L19.5914 15H18.5624ZM17.5654 12.942H18.1305C18.2976 12.942 18.422 12.9012 18.5037 12.8194C18.589 12.7377 18.6317 12.6221 18.6317 12.4729C18.6317 12.3307 18.589 12.2187 18.5037 12.137C18.422 12.0552 18.2976 12.0143 18.1305 12.0143H17.5654V12.942Z" fill="white"/>
</g>
<defs>
<linearGradient id="paint0_linear_13900_4935" x1="0.0012198" y1="14.9204" x2="26.2082" y2="14.9204" gradientUnits="userSpaceOnUse">
<stop stop-color="#B77946"/>
<stop offset="0.2364" stop-color="#FFE794"/>
<stop offset="0.2662" stop-color="#FBDA85"/>
<stop offset="0.3249" stop-color="#F5C76E"/>
<stop offset="0.3877" stop-color="#F0B95D"/>
<stop offset="0.4568" stop-color="#EEB153"/>
<stop offset="0.5447" stop-color="#EDAE50"/>
<stop offset="0.644" stop-color="#EEB052"/>
<stop offset="0.6982" stop-color="#EFB65A"/>
<stop offset="0.7415" stop-color="#F2C168"/>
<stop offset="0.779" stop-color="#F6D17B"/>
<stop offset="0.8125" stop-color="#FCE594"/>
<stop offset="0.8284" stop-color="#FFF1A3"/>
<stop offset="0.857" stop-color="#F7E398"/>
<stop offset="0.911" stop-color="#E1BF7C"/>
<stop offset="0.984" stop-color="#BE844F"/>
<stop offset="0.9972" stop-color="#B77946"/>
</linearGradient>
<linearGradient id="paint1_linear_13900_4935" x1="4.48719" y1="32.4404" x2="9.99664" y2="-3.36954" gradientUnits="userSpaceOnUse">
<stop stop-color="#B77946"/>
<stop offset="0.2364" stop-color="#FFE794"/>
<stop offset="0.2662" stop-color="#FBDA85"/>
<stop offset="0.3249" stop-color="#F5C76E"/>
<stop offset="0.3877" stop-color="#F0B95D"/>
<stop offset="0.4568" stop-color="#EEB153"/>
<stop offset="0.5447" stop-color="#EDAE50"/>
<stop offset="0.644" stop-color="#EEB052"/>
<stop offset="0.6982" stop-color="#EFB65A"/>
<stop offset="0.7415" stop-color="#F2C168"/>
<stop offset="0.779" stop-color="#F6D17B"/>
<stop offset="0.8125" stop-color="#FCE594"/>
<stop offset="0.8284" stop-color="#FFF1A3"/>
<stop offset="0.857" stop-color="#F7E398"/>
<stop offset="0.911" stop-color="#E1BF7C"/>
<stop offset="0.984" stop-color="#BE844F"/>
<stop offset="0.9972" stop-color="#B77946"/>
</linearGradient>
<linearGradient id="paint2_linear_13900_4935" x1="14.9034" y1="3.29936" x2="6.1777" y2="3.38965" gradientUnits="userSpaceOnUse">
<stop stop-color="#B77946"/>
<stop offset="0.2364" stop-color="#FFE794"/>
<stop offset="0.2662" stop-color="#FBDA85"/>
<stop offset="0.3249" stop-color="#F5C76E"/>
<stop offset="0.3877" stop-color="#F0B95D"/>
<stop offset="0.4568" stop-color="#EEB153"/>
<stop offset="0.5447" stop-color="#EDAE50"/>
<stop offset="0.638" stop-color="#F4C870"/>
<stop offset="0.7624" stop-color="#FCE695"/>
<stop offset="0.8284" stop-color="#FFF1A3"/>
<stop offset="0.857" stop-color="#F7E398"/>
<stop offset="0.911" stop-color="#E1BF7C"/>
<stop offset="0.984" stop-color="#BE844F"/>
<stop offset="0.9972" stop-color="#B77946"/>
</linearGradient>
<linearGradient id="paint3_linear_13900_4935" x1="13.1044" y1="3.37925" x2="21.2899" y2="3.37925" gradientUnits="userSpaceOnUse">
<stop stop-color="#B77946"/>
<stop offset="0.3662" stop-color="#FFE794"/>
<stop offset="0.473" stop-color="#F6C970"/>
<stop offset="0.5644" stop-color="#EFB559"/>
<stop offset="0.6212" stop-color="#EDAE50"/>
<stop offset="0.6717" stop-color="#F0BA5F"/>
<stop offset="0.7689" stop-color="#F9DB87"/>
<stop offset="0.8284" stop-color="#FFF1A3"/>
<stop offset="0.857" stop-color="#F7E398"/>
<stop offset="0.911" stop-color="#E1BF7C"/>
<stop offset="0.984" stop-color="#BE844F"/>
<stop offset="0.9972" stop-color="#B77946"/>
</linearGradient>
<linearGradient id="paint4_linear_13900_4935" x1="26.378" y1="33.1306" x2="13.9815" y2="5.56775" gradientUnits="userSpaceOnUse">
<stop stop-color="#B77946"/>
<stop offset="0.2364" stop-color="#FFE794"/>
<stop offset="0.2662" stop-color="#FBDA85"/>
<stop offset="0.3249" stop-color="#F5C76E"/>
<stop offset="0.3877" stop-color="#F0B95D"/>
<stop offset="0.4568" stop-color="#EEB153"/>
<stop offset="0.5447" stop-color="#EDAE50"/>
<stop offset="0.644" stop-color="#EEB052"/>
<stop offset="0.6982" stop-color="#EFB65A"/>
<stop offset="0.7415" stop-color="#F2C168"/>
<stop offset="0.779" stop-color="#F6D17B"/>
<stop offset="0.8125" stop-color="#FCE594"/>
<stop offset="0.8284" stop-color="#FFF1A3"/>
<stop offset="0.857" stop-color="#F7E398"/>
<stop offset="0.911" stop-color="#E1BF7C"/>
<stop offset="0.984" stop-color="#BE844F"/>
<stop offset="0.9972" stop-color="#B77946"/>
</linearGradient>
<linearGradient id="paint5_linear_13900_4935" x1="26.378" y1="33.1306" x2="13.9815" y2="5.56775" gradientUnits="userSpaceOnUse">
<stop offset="0.002793" stop-color="#B77946" stop-opacity="0"/>
<stop offset="0.9274" stop-color="#B77946"/>
</linearGradient>
<linearGradient id="paint6_linear_13900_4935" x1="1.60298" y1="13.3483" x2="24.6079" y2="13.3483" gradientUnits="userSpaceOnUse">
<stop stop-color="#613F1B"/>
<stop offset="0.5447" stop-color="#EDAE50"/>
<stop offset="0.5887" stop-color="#E0A24E"/>
<stop offset="0.6692" stop-color="#BF8148"/>
<stop offset="0.6872" stop-color="#B77946"/>
<stop offset="0.728" stop-color="#B87B48"/>
<stop offset="0.7503" stop-color="#BD834E"/>
<stop offset="0.7681" stop-color="#C59159"/>
<stop offset="0.7835" stop-color="#D1A468"/>
<stop offset="0.7974" stop-color="#E0BE7B"/>
<stop offset="0.8101" stop-color="#F2DC93"/>
<stop offset="0.8172" stop-color="#FFF1A3"/>
<stop offset="0.9972" stop-color="#B77946"/>
</linearGradient>
<linearGradient id="paint7_linear_13900_4935" x1="1.51212" y1="13.3436" x2="24.6987" y2="13.3436" gradientUnits="userSpaceOnUse">
<stop stop-color="#B77946"/>
<stop offset="0.2364" stop-color="#FFE794"/>
<stop offset="0.2662" stop-color="#FBDA85"/>
<stop offset="0.3249" stop-color="#F5C76E"/>
<stop offset="0.3877" stop-color="#F0B95D"/>
<stop offset="0.4568" stop-color="#EEB153"/>
<stop offset="0.5447" stop-color="#EDAE50"/>
<stop offset="0.644" stop-color="#EEB052"/>
<stop offset="0.6982" stop-color="#EFB65A"/>
<stop offset="0.7415" stop-color="#F2C168"/>
<stop offset="0.779" stop-color="#F6D17B"/>
<stop offset="0.8125" stop-color="#FCE594"/>
<stop offset="0.8284" stop-color="#FFF1A3"/>
<stop offset="0.857" stop-color="#F7E398"/>
<stop offset="0.911" stop-color="#E1BF7C"/>
<stop offset="0.984" stop-color="#BE844F"/>
<stop offset="0.9972" stop-color="#B77946"/>
</linearGradient>
<radialGradient id="paint8_radial_13900_4935" cx="0" cy="0" r="1" gradientUnits="userSpaceOnUse" gradientTransform="translate(22.5859 22.1222) scale(34.4658 34.341)">
<stop stop-color="#593B22"/>
<stop offset="0.1525" stop-color="#402B18"/>
<stop offset="0.3634" stop-color="#24180E"/>
<stop offset="0.5755" stop-color="#100B06"/>
<stop offset="0.7876" stop-color="#040402"/>
<stop offset="1" stop-color="#000100"/>
</radialGradient>
<radialGradient id="paint9_radial_13900_4935" cx="0" cy="0" r="1" gradientUnits="userSpaceOnUse" gradientTransform="translate(6.68721 -3.11362) scale(20.6809 20.606)">
<stop stop-color="#55BAFF"/>
<stop offset="0.0216" stop-color="#59BBFE" stop-opacity="0.9767"/>
<stop offset="0.4634" stop-color="#ADD8F2" stop-opacity="0.5005"/>
<stop offset="0.7756" stop-color="#E1E9EB" stop-opacity="0.1639"/>
<stop offset="0.9277" stop-color="#F5F0E8" stop-opacity="0"/>
</radialGradient>
<radialGradient id="paint10_radial_13900_4935" cx="0" cy="0" r="1" gradientUnits="userSpaceOnUse" gradientTransform="translate(25.2033 25.6583) scale(21.5086 21.4307)">
<stop stop-color="#EDAE50"/>
<stop offset="0.1105" stop-color="#DFA44B" stop-opacity="0.8892"/>
<stop offset="0.3188" stop-color="#BB893F" stop-opacity="0.6803"/>
<stop offset="0.6028" stop-color="#805D2C" stop-opacity="0.3955"/>
<stop offset="0.9483" stop-color="#2F2111" stop-opacity="0.0491"/>
<stop offset="0.9972" stop-color="#23180D" stop-opacity="0"/>
</radialGradient>
<linearGradient id="paint11_linear_13900_4935" x1="11.1975" y1="23.5724" x2="15.8972" y2="23.5724" gradientUnits="userSpaceOnUse">
<stop stop-color="#613F1B"/>
<stop offset="0.4207" stop-color="#EDAE50"/>
<stop offset="0.4684" stop-color="#F0B85D"/>
<stop offset="0.5556" stop-color="#F7D37E"/>
<stop offset="0.6388" stop-color="#FFF1A3"/>
<stop offset="0.6934" stop-color="#FCEB9F"/>
<stop offset="0.7643" stop-color="#F2DB92"/>
<stop offset="0.8443" stop-color="#E2C07D"/>
<stop offset="0.9302" stop-color="#CB9B60"/>
<stop offset="0.9972" stop-color="#B77946"/>
</linearGradient>
<radialGradient id="paint12_radial_13900_4935" cx="0" cy="0" r="1" gradientUnits="userSpaceOnUse" gradientTransform="translate(12.5253 22.7157) scale(3.04383 3.03281)">
<stop stop-color="#FEFEFE"/>
<stop offset="0.3868" stop-color="#EBDFD2"/>
<stop offset="0.7903" stop-color="#DAC3AA"/>
<stop offset="1" stop-color="#D4B89B"/>
</radialGradient>
<radialGradient id="paint13_radial_13900_4935" cx="0" cy="0" r="1" gradientUnits="userSpaceOnUse" gradientTransform="translate(13.1868 22.5543) scale(2.71511 2.70528)">
<stop stop-color="#FAF7F4"/>
<stop offset="0.9972" stop-color="#F5F0E8" stop-opacity="0"/>
</radialGradient>
<linearGradient id="paint14_linear_13900_4935" x1="11.5899" y1="23.5725" x2="14.6186" y2="23.5725" gradientUnits="userSpaceOnUse">
<stop stop-color="#B77946"/>
<stop offset="0.1034" stop-color="#EDAE50"/>
<stop offset="0.1954" stop-color="#E2A54D"/>
<stop offset="0.355" stop-color="#C68E45"/>
<stop offset="0.5617" stop-color="#996839"/>
<stop offset="0.6341" stop-color="#875934"/>
<stop offset="0.6378" stop-color="#8A5D37"/>
<stop offset="0.6745" stop-color="#A98454"/>
<stop offset="0.7138" stop-color="#C4A66C"/>
<stop offset="0.7555" stop-color="#D9C180"/>
<stop offset="0.8006" stop-color="#EAD790"/>
<stop offset="0.8507" stop-color="#F6E69B"/>
<stop offset="0.9097" stop-color="#FDEEA1"/>
<stop offset="1" stop-color="#FFF1A3"/>
</linearGradient>
<radialGradient id="paint15_radial_13900_4935" cx="0" cy="0" r="1" gradientUnits="userSpaceOnUse" gradientTransform="translate(6.42704 5.26761) rotate(-12.0092) scale(5.28512 5.26765)">
<stop stop-color="#F3E8DE"/>
<stop offset="0.5391" stop-color="#F6EEE7" stop-opacity="0.3616"/>
<stop offset="0.9624" stop-color="#F8F1EB" stop-opacity="0"/>
</radialGradient>
<radialGradient id="paint16_radial_13900_4935" cx="0" cy="0" r="1" gradientUnits="userSpaceOnUse" gradientTransform="translate(12.464 21.8454) rotate(-12.0092) scale(4.51142 4.4965)">
<stop stop-color="#F3E8DE"/>
<stop offset="0.5391" stop-color="#F6EEE7" stop-opacity="0.3616"/>
<stop offset="0.9624" stop-color="#F8F1EB" stop-opacity="0"/>
</radialGradient>
<clipPath id="clip0_13900_4935">
<rect width="26.208" height="28" fill="white"/>
</clipPath>
</defs>
</svg>
