<svg width="24" height="25" viewBox="0 0 24 25" fill="none" xmlns="http://www.w3.org/2000/svg">
<path d="M9 17.457C9 17.2581 9.07902 17.0674 9.21967 16.9267C9.36032 16.786 9.55109 16.707 9.75 16.707H14.25C14.4489 16.707 14.6397 16.786 14.7803 16.9267C14.921 17.0674 15 17.2581 15 17.457C15 17.6559 14.921 17.8467 14.7803 17.9874C14.6397 18.128 14.4489 18.207 14.25 18.207H9.75C9.55109 18.207 9.36032 18.128 9.21967 17.9874C9.07902 17.8467 9 17.6559 9 17.457ZM6 12.957C6 12.7581 6.07902 12.5674 6.21967 12.4267C6.36032 12.286 6.55109 12.207 6.75 12.207H17.25C17.4489 12.207 17.6397 12.286 17.7803 12.4267C17.921 12.5674 18 12.7581 18 12.957C18 13.1559 17.921 13.3467 17.7803 13.4874C17.6397 13.628 17.4489 13.707 17.25 13.707H6.75C6.55109 13.707 6.36032 13.628 6.21967 13.4874C6.07902 13.3467 6 13.1559 6 12.957ZM3 8.45703C3 8.25812 3.07902 8.06735 3.21967 7.9267C3.36032 7.78605 3.55109 7.70703 3.75 7.70703H20.25C20.4489 7.70703 20.6397 7.78605 20.7803 7.9267C20.921 8.06735 21 8.25812 21 8.45703C21 8.65594 20.921 8.84671 20.7803 8.98736C20.6397 9.12801 20.4489 9.20703 20.25 9.20703H3.75C3.55109 9.20703 3.36032 9.12801 3.21967 8.98736C3.07902 8.84671 3 8.65594 3 8.45703Z" fill="white"/>
</svg>
