<svg width="20" height="20" viewBox="0 0 20 20" fill="none"
    xmlns="http://www.w3.org/2000/svg">
    <mask id="mask0_4170_15103" style="mask-type:alpha" maskUnits="userSpaceOnUse" x="2" y="2" width="16" height="16">
        <path d="M2.5 10C2.5 6.71252 2.5 5.06878 3.40796 3.96243C3.57418 3.75989 3.75989 3.57418 3.96243 3.40796C5.06878 2.5 6.71252 2.5 10 2.5C13.2875 2.5 14.9312 2.5 16.0376 3.40796C16.2401 3.57418 16.4258 3.75989 16.592 3.96243C17.5 5.06878 17.5 6.71252 17.5 10C17.5 13.2875 17.5 14.9312 16.592 16.0376C16.4258 16.2401 16.2401 16.4258 16.0376 16.592C14.9312 17.5 13.2875 17.5 10 17.5C6.71252 17.5 5.06878 17.5 3.96243 16.592C3.75989 16.4258 3.57418 16.2401 3.40796 16.0376C2.5 14.9312 2.5 13.2875 2.5 10Z" fill="#273B4A"/>
    </mask>
    <g mask="url(#mask0_4170_15103)">
        <path d="M2.91667 20.4167L2.41736 20.4429L2.44229 20.9167H2.91667V20.4167ZM17.5 20.4167V20.9167H18V20.4167H17.5ZM16.7589 13.212L16.3515 13.502L16.7589 13.212ZM12.475 10.9857L12.2423 10.5432L12.475 10.9857ZM15.3036 11.7732L14.9691 12.1449L15.3036 11.7732ZM14.2423 10.9393L14.4514 10.4851L14.2423 10.9393ZM9.63501 12.2937L9.28386 12.6496L9.63501 12.2937ZM10.725 12.5036L10.5312 12.0427L10.725 12.5036ZM6.11397 9.13385L5.93612 8.66655L6.11397 9.13385ZM8.1801 9.53175L8.51878 9.16393L8.1801 9.53175ZM3.23952 11.8808L2.82095 11.6073L3.23952 11.8808ZM4.7345 10.9726L4.8618 10.8453L4.15469 10.1382L4.02739 10.2655L4.7345 10.9726ZM14.9691 12.1449L15.1479 12.3058L15.8169 11.5625L15.6381 11.4016L14.9691 12.1449ZM2.1405 15.1827L2.41736 20.4429L3.41598 20.3904L3.13912 15.1301L2.1405 15.1827ZM2.91667 20.9167H17.5V19.9167H2.91667V20.9167ZM18 20.4167V16.4644H17V20.4167H18ZM15.1479 12.3058C15.8451 12.9333 16.1354 13.1983 16.3515 13.502L17.1662 12.9221C16.8713 12.5078 16.4809 12.1602 15.8169 11.5625L15.1479 12.3058ZM18 16.4644C18 15.571 18.0028 15.0483 17.8921 14.5519L16.9161 14.7696C16.9972 15.1333 17 15.5264 17 16.4644H18ZM16.3515 13.502C16.6224 13.8826 16.8144 14.3136 16.9161 14.7696L17.8921 14.5519C17.7613 13.9656 17.5145 13.4115 17.1662 12.9221L16.3515 13.502ZM11.8126 12.2279C12.3366 11.7038 12.523 11.5254 12.7077 11.4283L12.2423 10.5432C11.8896 10.7287 11.5777 11.0485 11.1054 11.5208L11.8126 12.2279ZM15.6381 11.4016C15.1416 10.9548 14.8134 10.6518 14.4514 10.4851L14.0331 11.3934C14.2227 11.4807 14.4182 11.6491 14.9691 12.1449L15.6381 11.4016ZM12.7077 11.4283C13.1201 11.2114 13.6099 11.1986 14.0331 11.3934L14.4514 10.4851C13.746 10.1603 12.9297 10.1818 12.2423 10.5432L12.7077 11.4283ZM8.7209 11.6181C8.82345 11.8573 8.90889 12.0572 8.98704 12.2133C9.06484 12.3687 9.15529 12.5228 9.28386 12.6496L9.98616 11.9377C9.97514 11.9269 9.9433 11.8896 9.88122 11.7656C9.8195 11.6423 9.74746 11.4748 9.64005 11.2242L8.7209 11.6181ZM11.1054 11.5208C10.9166 11.7096 10.7907 11.8352 10.6899 11.9245C10.5891 12.0138 10.5463 12.0363 10.5312 12.0427L10.9188 12.9645C11.0845 12.8948 11.2242 12.7871 11.353 12.673C11.4818 12.5589 11.6326 12.4079 11.8126 12.2279L11.1054 11.5208ZM9.28386 12.6496C9.71523 13.0752 10.3603 13.1994 10.9188 12.9645L10.5312 12.0427C10.345 12.121 10.13 12.0796 9.98616 11.9377L9.28386 12.6496ZM4.8618 10.8453C5.2685 10.4386 5.55639 10.1511 5.79206 9.9445C6.0276 9.73803 6.17486 9.64567 6.29182 9.60115L5.93612 8.66655C5.65298 8.77432 5.39925 8.95903 5.13289 9.1925C4.86666 9.42587 4.55173 9.74116 4.15469 10.1382L4.8618 10.8453ZM9.64005 11.2242C9.41422 10.6972 9.23558 10.2798 9.07293 9.95913C8.91059 9.63911 8.74237 9.3698 8.51878 9.16393L7.84142 9.89958C7.93276 9.98368 8.03624 10.1259 8.18112 10.4115C8.32569 10.6965 8.48976 11.0787 8.7209 11.6181L9.64005 11.2242ZM6.29182 9.60115C6.82317 9.39893 7.42318 9.51448 7.84142 9.89958L8.51878 9.16393C7.82171 8.5221 6.8217 8.32951 5.93612 8.66655L6.29182 9.60115ZM4.02739 10.2655C3.43252 10.8604 3.0828 11.2066 2.82095 11.6073L3.65809 12.1543C3.84998 11.8606 4.10996 11.5971 4.7345 10.9726L4.02739 10.2655ZM3.13912 15.1301C3.0927 14.2481 3.07572 13.8783 3.12956 13.5317L2.1414 13.3782C2.06794 13.8513 2.09628 14.3426 2.1405 15.1827L3.13912 15.1301ZM2.82095 11.6073C2.47119 12.1426 2.23953 12.7463 2.1414 13.3782L3.12956 13.5317C3.20588 13.0402 3.38606 12.5707 3.65809 12.1543L2.82095 11.6073Z" fill="#E7E9FF"/>
    </g>
    <path d="M2.5 10C2.5 6.71252 2.5 5.06878 3.40796 3.96243C3.57418 3.75989 3.75989 3.57418 3.96243 3.40796C5.06878 2.5 6.71252 2.5 10 2.5V2.5C13.2875 2.5 14.9312 2.5 16.0376 3.40796C16.2401 3.57418 16.4258 3.75989 16.592 3.96243C17.5 5.06878 17.5 6.71252 17.5 10V10C17.5 13.2875 17.5 14.9312 16.592 16.0376C16.4258 16.2401 16.2401 16.4258 16.0376 16.592C14.9312 17.5 13.2875 17.5 10 17.5V17.5C6.71252 17.5 5.06878 17.5 3.96243 16.592C3.75989 16.4258 3.57418 16.2401 3.40796 16.0376C2.5 14.9312 2.5 13.2875 2.5 10V10Z" stroke="#E7E9FF" stroke-width="1.2"/>
    <circle cx="13.75" cy="6.25" r="1.25" fill="#E7E9FF"/>
</svg>
