<svg width="28" height="29" viewBox="0 0 28 29" fill="none" xmlns="http://www.w3.org/2000/svg">
<path d="M14.0003 27.5669C21.2168 27.5669 27.0669 21.7168 27.0669 14.5003C27.0669 7.28374 21.2168 1.43359 14.0003 1.43359C6.78374 1.43359 0.933594 7.28374 0.933594 14.5003C0.933594 21.7168 6.78374 27.5669 14.0003 27.5669Z" fill="#555ABE"/>
<path d="M17.8404 11.9456C17.5675 11.7897 17.2165 11.7897 16.9046 11.9456L14.7212 13.2323L13.2395 14.0511L11.095 15.3378C10.8221 15.4937 10.4712 15.4937 10.1593 15.3378L8.4827 14.324C8.20978 14.1681 8.01479 13.8561 8.01479 13.5052V11.5557C8.01479 11.2439 8.17074 10.9319 8.4827 10.737L10.1593 9.76219C10.4322 9.60625 10.7831 9.60625 11.095 9.76219L12.7716 10.7759C13.0445 10.9319 13.2395 11.2439 13.2395 11.5947V12.8814L14.7212 12.0236V10.6979C14.7212 10.386 14.5652 10.0741 14.2533 9.87917L11.1341 8.04665C10.8611 7.8907 10.5102 7.8907 10.1983 8.04665L7.00111 9.91821C6.68923 10.0742 6.5332 10.3861 6.5332 10.698V14.3631C6.5332 14.675 6.68915 14.987 7.00111 15.1819L10.1594 17.0144C10.4323 17.1704 10.7832 17.1704 11.0951 17.0144L13.2396 15.7667L14.7213 14.9089L16.8657 13.6612C17.1387 13.5052 17.4896 13.5052 17.8015 13.6612L19.4781 14.636C19.751 14.7919 19.946 15.1039 19.946 15.4547V17.4042C19.946 17.7161 19.79 18.0281 19.4781 18.223L17.8405 19.1978C17.5675 19.3537 17.2166 19.3537 16.9047 19.1978L15.2281 18.223C14.9552 18.0671 14.7602 17.7551 14.7602 17.4042V16.1565L13.2786 17.0143V18.301C13.2786 18.6129 13.4345 18.9249 13.7465 19.1198L16.9047 20.9523C17.1776 21.1083 17.5286 21.1083 17.8405 20.9523L20.9987 19.1198C21.2716 18.9638 21.4666 18.6519 21.4666 18.301V14.5969C21.4666 14.285 21.3107 13.9731 20.9987 13.7782L17.8404 11.9456Z" fill="white"/>
</svg>
