<svg width="24" height="25" viewBox="0 0 24 25" fill="none" xmlns="http://www.w3.org/2000/svg">
<path d="M12 3.5C10.8954 3.5 10 4.39543 10 5.5V5.84141C7.66962 6.66508 6 8.88756 6 11.5V16.5H5C4.44772 16.5 4 16.9477 4 17.5C4 18.0523 4.44772 18.5 5 18.5H19C19.5523 18.5 20 18.0523 20 17.5C20 16.9477 19.5523 16.5 19 16.5H18V11.5C18 8.88756 16.3304 6.66508 14 5.84141V5.5C14 4.39543 13.1046 3.5 12 3.5Z" fill="#B38465"/>
<path d="M12 21.5C10.8954 21.5 10 20.6046 10 19.5H14C14 20.6046 13.1046 21.5 12 21.5Z" fill="#B38465"/>
</svg>
