<svg width="14" height="15" viewBox="0 0 14 15" fill="none"
    xmlns="http://www.w3.org/2000/svg">
    <path d="M12.6597 14.4198L7.89719 9.6565C5.77858 11.1627 2.85922 10.7943 1.18125 8.80894C-0.496719 6.82359 -0.37351 3.88365 1.46469 2.04566C3.30241 0.20687 6.24263 0.0831278 8.22835 1.76101C10.2141 3.43889 10.5827 6.35854 9.07636 8.47733L13.8389 13.2407L12.6605 14.419L12.6597 14.4198ZM4.99969 2.24732C3.41944 2.24696 2.0561 3.35623 1.73509 4.90353C1.41407 6.45083 2.22362 8.01089 3.67359 8.6392C5.12356 9.2675 6.81544 8.79136 7.72489 7.49904C8.63435 6.20673 8.51141 4.45343 7.43052 3.30066L7.93469 3.80066L7.36636 3.234L7.35636 3.224C6.73285 2.59664 5.88419 2.24494 4.99969 2.24732Z" fill="#EF6F24"/>
</svg>
