<svg width="22" height="22" viewBox="0 0 22 22" fill="none" xmlns="http://www.w3.org/2000/svg">
<rect width="22" height="22" rx="11" fill="#53AE94"/>
<path d="M12.3577 9.53394V7.89752H16.0997V5.4043H5.91019V7.89752H9.65234V9.53256C6.61084 9.6723 4.32422 10.2746 4.32422 10.9962C4.32422 11.7179 6.61222 12.3202 9.65234 12.4608V17.7023H12.3583V12.4601C15.3943 12.3199 17.6766 11.718 17.6766 10.9971C17.6766 10.2762 15.3943 9.67427 12.3583 9.53411L12.3577 9.53394ZM12.3583 12.0162V12.0149C12.282 12.0197 11.8897 12.0432 11.0163 12.0432C10.3181 12.0432 9.8268 12.0235 9.65363 12.0144V12.0167C6.96654 11.8976 4.96084 11.4297 4.96084 10.8698C4.96084 10.31 6.9668 9.84263 9.65363 9.72343V11.5505C9.82963 11.5627 10.333 11.5923 11.0278 11.5923C11.8622 11.5923 12.2818 11.5579 12.3588 11.5505V9.72351C15.0405 9.84297 17.0417 10.3113 17.0417 10.8692C17.0417 11.4271 15.0393 11.8958 12.3588 12.0152" fill="white"/>
</svg>
