<svg width="35" height="35" viewBox="0 0 35 35" fill="none" xmlns="http://www.w3.org/2000/svg">
<g clip-path="url(#clip0_5887_6023)">
<path opacity="0.45" d="M17.6079 34.8809C26.9293 34.8809 34.4858 27.1486 34.4858 17.6104C34.4858 8.07224 26.9293 0.339996 17.6079 0.339996C8.28649 0.339996 0.72998 8.07224 0.72998 17.6104C0.72998 27.1486 8.28649 34.8809 17.6079 34.8809Z" fill="#A8A8A8"/>
<path d="M23.9879 12.6169L21.5743 24.2672C21.392 25.0896 20.9173 25.2942 20.2413 24.907L16.5635 22.1345L14.7885 23.8813C14.7015 23.9971 14.5895 24.0907 14.4613 24.1547C14.333 24.2188 14.192 24.2516 14.0493 24.2505L14.3138 20.4168L21.1314 14.1116C21.4277 13.841 21.0674 13.6914 20.6709 13.9615L12.242 19.3924L8.61326 18.23C7.82378 17.9778 7.80959 17.4221 8.77752 17.0349L22.9705 11.4399C23.6276 11.1878 24.2025 11.5899 23.9883 12.6164L23.9879 12.6169Z" fill="white"/>
</g>
<defs>
<clipPath id="clip0_5887_6023">
<rect width="33.7563" height="34.5413" fill="white" transform="translate(0.72998 0.339996)"/>
</clipPath>
</defs>
</svg>
