<svg width="19" height="18" viewBox="0 0 19 18" fill="none"
    xmlns="http://www.w3.org/2000/svg">
    <path d="M9.5 15.75C13.2279 15.75 16.25 12.7279 16.25 9C16.25 5.27208 13.2279 2.25 9.5 2.25C5.77208 2.25 2.75 5.27208 2.75 9C2.75 12.7279 5.77208 15.75 9.5 15.75Z" stroke="#29A2E2" stroke-width="1.5" stroke-linecap="round" stroke-linejoin="round"/>
    <path d="M10.2812 12.6562C10.2812 13.0877 9.93147 13.4375 9.5 13.4375C9.06853 13.4375 8.71875 13.0877 8.71875 12.6562C8.71875 12.2248 9.06853 11.875 9.5 11.875C9.93147 11.875 10.2812 12.2248 10.2812 12.6562Z" fill="#29A2E2" stroke="#29A2E2" stroke-width="0.125"/>
    <path d="M9.5 10.125V9.5625C9.88938 9.5625 10.27 9.44704 10.5938 9.23071C10.9175 9.01438 11.1699 8.7069 11.3189 8.34716C11.4679 7.98742 11.5069 7.59157 11.4309 7.20967C11.355 6.82777 11.1675 6.47697 10.8921 6.20163C10.6168 5.9263 10.266 5.73879 9.88408 5.66283C9.50218 5.58687 9.10633 5.62585 8.74659 5.77486C8.38685 5.92387 8.07937 6.17621 7.86304 6.49997C7.64672 6.82373 7.53125 7.20437 7.53125 7.59375" stroke="#29A2E2" stroke-width="1.5" stroke-linecap="round" stroke-linejoin="round"/>
</svg>
