<svg width="20" height="20" viewBox="0 0 20 20" fill="none" xmlns="http://www.w3.org/2000/svg">
<circle cx="10" cy="10" r="10" fill="#40C3FF"/>
<path d="M16.1111 6.73104C15.6566 6.93042 15.1723 7.06257 14.6674 7.12674C15.1868 6.8166 15.5833 6.32924 15.7697 5.74181C15.2854 6.03056 14.7506 6.23452 14.1808 6.34834C13.7209 5.85868 13.0655 5.55542 12.3505 5.55542C10.9633 5.55542 9.84648 6.68139 9.84648 8.06173C9.84648 8.26035 9.86329 8.45132 9.90454 8.63312C7.82142 8.53153 5.97815 7.53312 4.73989 6.01222C4.52371 6.38729 4.3969 6.8166 4.3969 7.27875C4.3969 8.14653 4.84378 8.91576 5.50989 9.36111C5.10732 9.35347 4.71239 9.23659 4.3778 9.0525C4.3778 9.06014 4.3778 9.07007 4.3778 9.08C4.3778 10.2976 5.24635 11.309 6.3853 11.542C6.18135 11.5978 5.95905 11.6245 5.72836 11.6245C5.56794 11.6245 5.406 11.6153 5.25399 11.5817C5.57864 12.574 6.49989 13.3035 7.5953 13.3272C6.7428 13.9941 5.66037 14.3959 4.48857 14.3959C4.28308 14.3959 4.086 14.3867 3.88892 14.3615C4.99885 15.0773 6.31426 15.486 7.7328 15.486C12.3436 15.486 14.8645 11.6665 14.8645 8.35583C14.8645 8.24507 14.8607 8.13812 14.8553 8.03194C15.3526 7.67903 15.7704 7.23826 16.1111 6.73104Z" fill="white"/>
</svg>
