<svg width="40" height="40" viewBox="0 0 40 40" fill="none" xmlns="http://www.w3.org/2000/svg">
<rect x="0.5" y="0.5" width="39" height="39" rx="2.5" stroke="#E6E8EC"/>
<path d="M28.1131 15.2818C27.5325 15.5416 26.9138 15.7138 26.2688 15.7974C26.9323 15.3933 27.4388 14.7583 27.6769 13.9929C27.0582 14.3691 26.3751 14.6348 25.6472 14.7832C25.0597 14.1451 24.2225 13.75 23.3091 13.75C21.537 13.75 20.1104 15.2171 20.1104 17.0157C20.1104 17.2745 20.1319 17.5233 20.1846 17.7602C17.5235 17.6278 15.1689 16.3269 13.5871 14.3452C13.3109 14.8339 13.1489 15.3933 13.1489 15.9955C13.1489 17.1262 13.7198 18.1285 14.5707 18.7087C14.0564 18.6988 13.5519 18.5465 13.1245 18.3066C13.1245 18.3166 13.1245 18.3295 13.1245 18.3425C13.1245 19.929 14.234 21.2468 15.689 21.5504C15.4284 21.6231 15.1445 21.6579 14.8498 21.6579C14.6448 21.6579 14.438 21.646 14.2438 21.6022C14.6585 22.8951 15.8353 23.8456 17.2347 23.8765C16.1457 24.7454 14.7629 25.269 13.266 25.269C13.0035 25.269 12.7518 25.257 12.5 25.2242C13.9179 26.1568 15.5982 26.6893 17.4103 26.6893C23.3003 26.6893 26.5205 21.7127 26.5205 17.3989C26.5205 17.2546 26.5157 17.1152 26.5088 16.9769C27.1441 16.517 27.6779 15.9427 28.1131 15.2818Z" fill="white"/>
</svg>
