<svg width="36" height="36" viewBox="0 0 36 36" fill="none"
    xmlns="http://www.w3.org/2000/svg">
    <path d="M18 7.5L19.0607 6.43934L18 5.37868L16.9393 6.43934L18 7.5ZM16.5 25.5C16.5 26.3284 17.1716 27 18 27C18.8284 27 19.5 26.3284 19.5 25.5L16.5 25.5ZM28.0607 15.4393L19.0607 6.43934L16.9393 8.56066L25.9393 17.5607L28.0607 15.4393ZM16.9393 6.43934L7.93934 15.4393L10.0607 17.5607L19.0607 8.56066L16.9393 6.43934ZM16.5 7.5L16.5 25.5L19.5 25.5L19.5 7.5L16.5 7.5Z" fill="#848599"/>
    <path d="M7.5 31.5L28.5 31.5" stroke="#848599" stroke-width="2"/>
</svg>
