<svg width="22" height="22" viewBox="0 0 22 22" fill="none" xmlns="http://www.w3.org/2000/svg">
<rect width="22" height="22" rx="11" fill="#53AE94"/>
<path d="M12.3575 9.53394V7.89752H16.0995V5.4043H5.90995V7.89752H9.6521V9.53256C6.6106 9.6723 4.32397 10.2746 4.32397 10.9962C4.32397 11.7179 6.61197 12.3202 9.6521 12.4608V17.7023H12.3581V12.4601C15.3941 12.3199 17.6763 11.718 17.6763 10.9971C17.6763 10.2762 15.3941 9.67427 12.3581 9.53411L12.3575 9.53394ZM12.3581 12.0162V12.0149C12.2818 12.0197 11.8895 12.0432 11.0161 12.0432C10.3179 12.0432 9.82655 12.0235 9.65339 12.0144V12.0167C6.96629 11.8976 4.9606 11.4297 4.9606 10.8698C4.9606 10.31 6.96655 9.84263 9.65339 9.72343V11.5505C9.82939 11.5627 10.3327 11.5923 11.0275 11.5923C11.862 11.5923 12.2815 11.5579 12.3585 11.5505V9.72351C15.0403 9.84297 17.0414 10.3113 17.0414 10.8692C17.0414 11.4271 15.0391 11.8958 12.3585 12.0152" fill="white"/>
</svg>
