<svg width="117" height="125" viewBox="0 0 117 125" fill="none" xmlns="http://www.w3.org/2000/svg">
<g clip-path="url(#clip0_12854_737)">
<path d="M116.68 57.3022C112.983 98.1657 58.4901 125.01 58.4901 125.01C58.4901 125.01 4.00733 98.1756 0.309863 57.3022C-3.38761 16.4288 26.6618 8.19434 26.6618 8.19434C30.9489 23.1398 58.4901 8.19434 58.4901 8.19434C58.4901 8.19434 86.0412 23.1398 90.3183 8.19434C90.3283 8.19434 120.378 16.4288 116.68 57.3022Z" fill="url(#paint0_linear_12854_737)"/>
<path d="M58.5001 84.9725V125C58.5001 125 4.01734 98.1655 0.319867 57.302C-3.35762 16.7372 26.2222 8.31363 26.6519 8.2041C26.502 8.39328 24.0936 11.5895 23.8638 17.2052C16.9385 21.2278 5.17655 31.8022 7.435 56.6548C9.11385 75.1947 23.0443 90.877 36.3752 101.82C38.5337 103.602 41.7216 103.363 43.6003 101.292L58.5001 84.9725Z" fill="url(#paint1_linear_12854_737)"/>
<path d="M58.5001 8.19434V16.15C53.6934 18.3903 44.7795 21.9549 36.8249 21.9549C31.4186 21.9549 26.9716 20.2821 23.8638 17.2054C24.1036 11.5996 26.512 8.40343 26.6519 8.20429C26.6619 8.19434 26.6619 8.19434 26.6619 8.19434C30.9489 23.1398 58.5001 8.19434 58.5001 8.19434Z" fill="url(#paint2_linear_12854_737)"/>
<path d="M93.1263 17.2054C90.0184 20.2821 85.5715 21.9549 80.1652 21.9549C72.2106 21.9549 63.3067 18.3903 58.5 16.15V8.19434C58.5 8.19434 86.0412 23.1398 90.3282 8.19434C90.3282 8.19434 90.3282 8.19434 90.3382 8.20429C90.4781 8.39348 92.8865 11.5897 93.1263 17.2054Z" fill="url(#paint3_linear_12854_737)"/>
<path d="M116.68 57.2922C112.983 98.1657 58.4902 124.99 58.4902 124.99V84.9627L73.41 101.312C75.2887 103.383 78.4766 103.612 80.6351 101.84C93.946 90.907 107.876 75.2447 109.555 56.655C111.814 31.7725 100.022 21.1982 93.1166 17.1955C92.8767 11.5897 90.4684 8.39348 90.3185 8.19434C90.7582 8.31382 120.358 16.7374 116.68 57.2922Z" fill="url(#paint4_linear_12854_737)"/>
<path d="M116.68 57.2922C112.983 98.1657 58.4902 124.99 58.4902 124.99V84.9627L73.41 101.312C75.2887 103.383 78.4766 103.612 80.6351 101.84C93.946 90.907 107.876 75.2447 109.555 56.655C111.814 31.7725 100.022 21.1982 93.1166 17.1955C92.8767 11.5897 90.4684 8.39348 90.3185 8.19434C90.7582 8.31382 120.358 16.7374 116.68 57.2922Z" fill="url(#paint5_linear_12854_737)"/>
<path d="M93.1264 17.2058C90.0185 20.2825 85.5715 21.9553 80.1652 21.9553C72.2107 21.9553 63.3068 18.3907 58.5001 16.1504C53.6933 18.3907 44.7794 21.9553 36.8249 21.9553C31.4186 21.9553 26.9716 20.2825 23.8637 17.2058C16.9385 21.2285 5.17651 31.8028 7.43497 56.6554C9.11382 75.1854 23.0243 90.8577 36.3452 101.8C38.5237 103.583 41.7115 103.374 43.6002 101.303L57.041 86.5662C57.8205 85.7099 59.1596 85.7099 59.9391 86.5662L73.4099 101.322C75.3086 103.403 78.4964 103.613 80.6649 101.82C93.9658 90.8875 107.876 75.2252 109.555 56.6554C111.824 31.7729 100.032 21.1986 93.1264 17.2058Z" fill="url(#paint6_linear_12854_737)"/>
<path d="M93.1264 17.2058C90.0185 20.2825 85.5715 21.9553 80.1652 21.9553C72.2107 21.9553 63.3068 18.3907 58.5001 16.1504C53.6933 18.3907 44.7794 21.9553 36.8249 21.9553C31.4186 21.9553 26.9716 20.2825 23.8637 17.2058C16.9385 21.2285 5.17651 31.8028 7.43497 56.6554C9.11382 75.1854 23.0243 90.8577 36.3452 101.8C38.5237 103.583 41.7115 103.374 43.6002 101.303L57.0411 86.5662C57.8205 85.7099 59.1596 85.7099 59.9391 86.5662L73.4099 101.322C75.3086 103.403 78.4964 103.613 80.6649 101.82C93.9658 90.8875 107.876 75.2252 109.555 56.6554C111.824 31.7729 100.032 21.1986 93.1264 17.2058Z" stroke="url(#paint7_linear_12854_737)" stroke-width="0.8119" stroke-miterlimit="10"/>
<path d="M77.2973 101.044C76.3679 101.044 75.5085 100.665 74.8889 99.9783L61.4281 85.2221C60.6787 84.4056 59.6094 83.9277 58.5001 83.9277C57.3909 83.9277 56.3216 84.3956 55.5721 85.2221L42.1313 99.9485C41.5118 100.635 40.6523 101.014 39.723 101.014C38.9635 101.014 38.214 100.745 37.6244 100.257C25.6726 90.4495 11.0826 74.8867 9.4237 56.4763C7.40508 34.2622 16.9286 24.0464 23.634 19.6752C27.0516 22.4732 31.5686 23.9368 36.815 23.9368C44.7495 23.9368 53.4936 20.5913 58.4902 18.3311C63.4867 20.5913 72.2407 23.9368 80.1553 23.9368C85.4117 23.9368 89.9287 22.4632 93.3463 19.6653C100.052 24.0265 109.585 34.2224 107.567 56.4663C105.898 74.9166 91.3277 90.4794 79.3959 100.277C78.8063 100.775 78.0668 101.044 77.2973 101.044Z" fill="url(#paint8_radial_12854_737)"/>
<path d="M93.4063 22.1345C89.8088 24.6238 85.2619 25.9381 80.1654 25.9381C72.5206 25.9381 64.3062 23.0804 58.5002 20.5215C52.6842 23.0705 44.4698 25.9381 36.825 25.9381C31.7285 25.9381 27.1916 24.6337 23.5941 22.1345C16.7987 27.0632 9.66361 36.9007 11.4224 56.2969C11.7922 60.3992 12.8514 64.3621 14.3804 68.1557C44.6397 61.0165 75.0589 47.0369 98.1331 26.4658C96.6141 24.7233 95.0052 23.2895 93.4063 22.1345Z" fill="url(#paint9_radial_12854_737)"/>
<path d="M14.3701 68.1555C19.4666 80.7312 29.9295 91.3752 38.8834 98.7235C39.1132 98.9127 39.413 99.0222 39.7128 99.0222C40.0825 99.0222 40.4023 98.8828 40.6422 98.6139L54.083 83.8876C55.2122 82.6529 56.8211 81.946 58.4899 81.946C60.1588 81.946 61.7677 82.6529 62.8969 83.8876L76.3677 98.6438C76.6175 98.9127 76.9373 99.0521 77.2971 99.0521C77.5969 99.0521 77.8867 98.9425 78.1265 98.7533C89.7686 89.1946 103.969 74.07 105.578 56.3067C106.927 41.431 103.049 32.2009 98.1129 26.4756C75.0486 47.0467 44.6294 61.0164 14.3701 68.1555Z" fill="url(#paint10_radial_12854_737)"/>
<path d="M60.9183 113.768L66.3246 107.067C67.244 105.922 67.234 104.289 66.2946 103.154L60.8883 96.6524C59.6491 95.1588 57.3507 95.1588 56.1116 96.6524L50.7053 103.154C49.7659 104.289 49.7559 105.922 50.6753 107.067L56.0816 113.768C57.3207 115.312 59.6691 115.312 60.9183 113.768Z" fill="url(#paint11_linear_12854_737)"/>
<path d="M58.4998 112.932C58.2999 112.932 57.9302 112.882 57.6404 112.524L52.2341 105.822C51.9043 105.414 51.9143 104.827 52.2441 104.429L57.6504 97.9266C57.9402 97.5781 58.3099 97.5283 58.4998 97.5283C58.6897 97.5283 59.0594 97.5781 59.3492 97.9266L64.7555 104.429C65.0853 104.827 65.0953 105.414 64.7655 105.822L59.3592 112.524C59.0694 112.882 58.6897 112.932 58.4998 112.932Z" fill="url(#paint12_radial_12854_737)"/>
<path d="M58.5799 98.5645H58.42L53.0137 105.066C52.9837 105.106 52.9837 105.166 53.0137 105.196L53.973 106.381C57.0509 105.833 59.9589 104.857 62.5772 103.354L58.5799 98.5645Z" fill="url(#paint13_radial_12854_737)"/>
<path d="M58.4998 112.932C58.2999 112.932 57.9302 112.882 57.6404 112.524L52.2341 105.822C51.9043 105.414 51.9143 104.827 52.2441 104.429L57.6504 97.9266C57.9402 97.5781 58.3099 97.5283 58.4998 97.5283C58.6897 97.5283 59.0594 97.5781 59.3492 97.9266L64.7555 104.429C65.0853 104.827 65.0953 105.414 64.7655 105.822L59.3592 112.524C59.0694 112.882 58.6897 112.932 58.4998 112.932Z" stroke="url(#paint14_linear_12854_737)" stroke-width="0.5" stroke-miterlimit="10"/>
<path d="M28.6905 47.0267C41.7211 47.0267 52.2844 36.5016 52.2844 23.5182C52.2844 10.5349 41.7211 0.00976562 28.6905 0.00976562C15.66 0.00976562 5.09668 10.5349 5.09668 23.5182C5.09668 36.5016 15.66 47.0267 28.6905 47.0267Z" fill="url(#paint15_radial_12854_737)"/>
<path d="M55.6423 117.602C66.7688 117.602 75.7885 108.615 75.7885 97.5284C75.7885 86.4422 66.7688 77.4551 55.6423 77.4551C44.5159 77.4551 35.4961 86.4422 35.4961 97.5284C35.4961 108.615 44.5159 117.602 55.6423 117.602Z" fill="url(#paint16_radial_12854_737)"/>
<path d="M40.1156 52.1706V59.7306C40.1156 60.4866 40.3016 61.0686 40.6736 61.4766C41.0456 61.8846 41.5916 62.0886 42.3116 62.0886C43.0316 62.0886 43.5836 61.8846 43.9676 61.4766C44.3516 61.0686 44.5436 60.4866 44.5436 59.7306V52.1706H47.6216V59.7126C47.6216 60.8406 47.3816 61.7946 46.9016 62.5746C46.4216 63.3546 45.7736 63.9426 44.9576 64.3386C44.1536 64.7346 43.2536 64.9326 42.2576 64.9326C41.2616 64.9326 40.3676 64.7406 39.5756 64.3566C38.7956 63.9606 38.1776 63.3726 37.7216 62.5926C37.2656 61.8006 37.0376 60.8406 37.0376 59.7126V52.1706H40.1156ZM54.355 64.9326C53.431 64.9326 52.603 64.7826 51.871 64.4826C51.139 64.1826 50.551 63.7386 50.107 63.1506C49.675 62.5626 49.447 61.8546 49.423 61.0266H52.699C52.747 61.4946 52.909 61.8546 53.185 62.1066C53.461 62.3466 53.821 62.4666 54.265 62.4666C54.721 62.4666 55.081 62.3646 55.345 62.1606C55.609 61.9446 55.741 61.6506 55.741 61.2786C55.741 60.9666 55.633 60.7086 55.417 60.5046C55.213 60.3006 54.955 60.1326 54.643 60.0006C54.343 59.8686 53.911 59.7186 53.347 59.5506C52.531 59.2986 51.865 59.0466 51.349 58.7946C50.833 58.5426 50.389 58.1706 50.017 57.6786C49.645 57.1866 49.459 56.5446 49.459 55.7526C49.459 54.5766 49.885 53.6586 50.737 52.9986C51.589 52.3266 52.699 51.9906 54.067 51.9906C55.459 51.9906 56.581 52.3266 57.433 52.9986C58.285 53.6586 58.741 54.5826 58.801 55.7706H55.471C55.447 55.3626 55.297 55.0446 55.021 54.8166C54.745 54.5766 54.391 54.4566 53.959 54.4566C53.587 54.4566 53.287 54.5586 53.059 54.7626C52.831 54.9546 52.717 55.2366 52.717 55.6086C52.717 56.0166 52.909 56.3346 53.293 56.5626C53.677 56.7906 54.277 57.0366 55.093 57.3006C55.909 57.5766 56.569 57.8406 57.073 58.0926C57.589 58.3446 58.033 58.7106 58.405 59.1906C58.777 59.6706 58.963 60.2886 58.963 61.0446C58.963 61.7646 58.777 62.4186 58.405 63.0066C58.045 63.5946 57.517 64.0626 56.821 64.4106C56.125 64.7586 55.303 64.9326 54.355 64.9326ZM63.9352 54.6366V57.1926H68.0572V59.5686H63.9352V62.3406H68.5972V64.8066H60.8572V52.1706H68.5972V54.6366H63.9352ZM77.0395 64.8066L74.4115 60.0366H73.6735V64.8066H70.5955V52.1706H75.7615C76.7575 52.1706 77.6035 52.3446 78.2995 52.6926C79.0075 53.0406 79.5355 53.5206 79.8835 54.1326C80.2315 54.7326 80.4055 55.4046 80.4055 56.1486C80.4055 56.9886 80.1655 57.7386 79.6855 58.3986C79.2175 59.0586 78.5215 59.5266 77.5975 59.8026L80.5135 64.8066H77.0395ZM73.6735 57.8586H75.5815C76.1455 57.8586 76.5655 57.7206 76.8415 57.4446C77.1295 57.1686 77.2735 56.7786 77.2735 56.2746C77.2735 55.7946 77.1295 55.4166 76.8415 55.1406C76.5655 54.8646 76.1455 54.7266 75.5815 54.7266H73.6735V57.8586Z" fill="white"/>
</g>
<defs>
<linearGradient id="paint0_linear_12854_737" x1="7.44567e-05" y1="66.5982" x2="116.996" y2="66.5982" gradientUnits="userSpaceOnUse">
<stop stop-color="#B77946"/>
<stop offset="0.2364" stop-color="#FFE794"/>
<stop offset="0.2662" stop-color="#FBDA85"/>
<stop offset="0.3249" stop-color="#F5C76E"/>
<stop offset="0.3877" stop-color="#F0B95D"/>
<stop offset="0.4568" stop-color="#EEB153"/>
<stop offset="0.5447" stop-color="#EDAE50"/>
<stop offset="0.644" stop-color="#EEB052"/>
<stop offset="0.6982" stop-color="#EFB65A"/>
<stop offset="0.7415" stop-color="#F2C168"/>
<stop offset="0.779" stop-color="#F6D17B"/>
<stop offset="0.8125" stop-color="#FCE594"/>
<stop offset="0.8284" stop-color="#FFF1A3"/>
<stop offset="0.857" stop-color="#F7E398"/>
<stop offset="0.911" stop-color="#E1BF7C"/>
<stop offset="0.984" stop-color="#BE844F"/>
<stop offset="0.9972" stop-color="#B77946"/>
</linearGradient>
<linearGradient id="paint1_linear_12854_737" x1="20.0268" y1="144.814" x2="44.6226" y2="-15.0521" gradientUnits="userSpaceOnUse">
<stop stop-color="#B77946"/>
<stop offset="0.2364" stop-color="#FFE794"/>
<stop offset="0.2662" stop-color="#FBDA85"/>
<stop offset="0.3249" stop-color="#F5C76E"/>
<stop offset="0.3877" stop-color="#F0B95D"/>
<stop offset="0.4568" stop-color="#EEB153"/>
<stop offset="0.5447" stop-color="#EDAE50"/>
<stop offset="0.644" stop-color="#EEB052"/>
<stop offset="0.6982" stop-color="#EFB65A"/>
<stop offset="0.7415" stop-color="#F2C168"/>
<stop offset="0.779" stop-color="#F6D17B"/>
<stop offset="0.8125" stop-color="#FCE594"/>
<stop offset="0.8284" stop-color="#FFF1A3"/>
<stop offset="0.857" stop-color="#F7E398"/>
<stop offset="0.911" stop-color="#E1BF7C"/>
<stop offset="0.984" stop-color="#BE844F"/>
<stop offset="0.9972" stop-color="#B77946"/>
</linearGradient>
<linearGradient id="paint2_linear_12854_737" x1="66.5278" y1="14.7188" x2="27.5737" y2="15.1218" gradientUnits="userSpaceOnUse">
<stop stop-color="#B77946"/>
<stop offset="0.2364" stop-color="#FFE794"/>
<stop offset="0.2662" stop-color="#FBDA85"/>
<stop offset="0.3249" stop-color="#F5C76E"/>
<stop offset="0.3877" stop-color="#F0B95D"/>
<stop offset="0.4568" stop-color="#EEB153"/>
<stop offset="0.5447" stop-color="#EDAE50"/>
<stop offset="0.638" stop-color="#F4C870"/>
<stop offset="0.7624" stop-color="#FCE695"/>
<stop offset="0.8284" stop-color="#FFF1A3"/>
<stop offset="0.857" stop-color="#F7E398"/>
<stop offset="0.911" stop-color="#E1BF7C"/>
<stop offset="0.984" stop-color="#BE844F"/>
<stop offset="0.9972" stop-color="#B77946"/>
</linearGradient>
<linearGradient id="paint3_linear_12854_737" x1="58.4953" y1="15.0754" x2="95.0376" y2="15.0754" gradientUnits="userSpaceOnUse">
<stop stop-color="#B77946"/>
<stop offset="0.3662" stop-color="#FFE794"/>
<stop offset="0.473" stop-color="#F6C970"/>
<stop offset="0.5644" stop-color="#EFB559"/>
<stop offset="0.6212" stop-color="#EDAE50"/>
<stop offset="0.6717" stop-color="#F0BA5F"/>
<stop offset="0.7689" stop-color="#F9DB87"/>
<stop offset="0.8284" stop-color="#FFF1A3"/>
<stop offset="0.857" stop-color="#F7E398"/>
<stop offset="0.911" stop-color="#E1BF7C"/>
<stop offset="0.984" stop-color="#BE844F"/>
<stop offset="0.9972" stop-color="#B77946"/>
</linearGradient>
<linearGradient id="paint4_linear_12854_737" x1="117.751" y1="147.894" x2="62.4097" y2="24.8455" gradientUnits="userSpaceOnUse">
<stop stop-color="#B77946"/>
<stop offset="0.2364" stop-color="#FFE794"/>
<stop offset="0.2662" stop-color="#FBDA85"/>
<stop offset="0.3249" stop-color="#F5C76E"/>
<stop offset="0.3877" stop-color="#F0B95D"/>
<stop offset="0.4568" stop-color="#EEB153"/>
<stop offset="0.5447" stop-color="#EDAE50"/>
<stop offset="0.644" stop-color="#EEB052"/>
<stop offset="0.6982" stop-color="#EFB65A"/>
<stop offset="0.7415" stop-color="#F2C168"/>
<stop offset="0.779" stop-color="#F6D17B"/>
<stop offset="0.8125" stop-color="#FCE594"/>
<stop offset="0.8284" stop-color="#FFF1A3"/>
<stop offset="0.857" stop-color="#F7E398"/>
<stop offset="0.911" stop-color="#E1BF7C"/>
<stop offset="0.984" stop-color="#BE844F"/>
<stop offset="0.9972" stop-color="#B77946"/>
</linearGradient>
<linearGradient id="paint5_linear_12854_737" x1="117.751" y1="147.894" x2="62.4097" y2="24.8455" gradientUnits="userSpaceOnUse">
<stop offset="0.002793" stop-color="#B77946" stop-opacity="0"/>
<stop offset="0.9274" stop-color="#B77946"/>
</linearGradient>
<linearGradient id="paint6_linear_12854_737" x1="7.14896" y1="59.5927" x2="109.849" y2="59.5927" gradientUnits="userSpaceOnUse">
<stop stop-color="#613F1B"/>
<stop offset="0.5447" stop-color="#EDAE50"/>
<stop offset="0.5887" stop-color="#E0A24E"/>
<stop offset="0.6692" stop-color="#BF8148"/>
<stop offset="0.6872" stop-color="#B77946"/>
<stop offset="0.728" stop-color="#B87B48"/>
<stop offset="0.7503" stop-color="#BD834E"/>
<stop offset="0.7681" stop-color="#C59159"/>
<stop offset="0.7835" stop-color="#D1A468"/>
<stop offset="0.7974" stop-color="#E0BE7B"/>
<stop offset="0.8101" stop-color="#F2DC93"/>
<stop offset="0.8172" stop-color="#FFF1A3"/>
<stop offset="0.9972" stop-color="#B77946"/>
</linearGradient>
<linearGradient id="paint7_linear_12854_737" x1="6.74334" y1="59.5717" x2="110.255" y2="59.5717" gradientUnits="userSpaceOnUse">
<stop stop-color="#B77946"/>
<stop offset="0.2364" stop-color="#FFE794"/>
<stop offset="0.2662" stop-color="#FBDA85"/>
<stop offset="0.3249" stop-color="#F5C76E"/>
<stop offset="0.3877" stop-color="#F0B95D"/>
<stop offset="0.4568" stop-color="#EEB153"/>
<stop offset="0.5447" stop-color="#EDAE50"/>
<stop offset="0.644" stop-color="#EEB052"/>
<stop offset="0.6982" stop-color="#EFB65A"/>
<stop offset="0.7415" stop-color="#F2C168"/>
<stop offset="0.779" stop-color="#F6D17B"/>
<stop offset="0.8125" stop-color="#FCE594"/>
<stop offset="0.8284" stop-color="#FFF1A3"/>
<stop offset="0.857" stop-color="#F7E398"/>
<stop offset="0.911" stop-color="#E1BF7C"/>
<stop offset="0.984" stop-color="#BE844F"/>
<stop offset="0.9972" stop-color="#B77946"/>
</linearGradient>
<radialGradient id="paint8_radial_12854_737" cx="0" cy="0" r="1" gradientUnits="userSpaceOnUse" gradientTransform="translate(100.823 98.7628) scale(153.865 153.308)">
<stop stop-color="#593B22"/>
<stop offset="0.1525" stop-color="#402B18"/>
<stop offset="0.3634" stop-color="#24180E"/>
<stop offset="0.5755" stop-color="#100B06"/>
<stop offset="0.7876" stop-color="#040402"/>
<stop offset="1" stop-color="#000100"/>
</radialGradient>
<radialGradient id="paint9_radial_12854_737" cx="0" cy="0" r="1" gradientUnits="userSpaceOnUse" gradientTransform="translate(29.8491 -13.8951) scale(92.3255 91.9912)">
<stop stop-color="#55BAFF"/>
<stop offset="0.0216" stop-color="#59BBFE" stop-opacity="0.9767"/>
<stop offset="0.4634" stop-color="#ADD8F2" stop-opacity="0.5005"/>
<stop offset="0.7756" stop-color="#E1E9EB" stop-opacity="0.1639"/>
<stop offset="0.9277" stop-color="#F5F0E8" stop-opacity="0"/>
</radialGradient>
<radialGradient id="paint10_radial_12854_737" cx="0" cy="0" r="1" gradientUnits="userSpaceOnUse" gradientTransform="translate(112.507 114.55) scale(96.0206 95.673)">
<stop stop-color="#EDAE50"/>
<stop offset="0.1105" stop-color="#DFA44B" stop-opacity="0.8892"/>
<stop offset="0.3188" stop-color="#BB893F" stop-opacity="0.6803"/>
<stop offset="0.6028" stop-color="#805D2C" stop-opacity="0.3955"/>
<stop offset="0.9483" stop-color="#2F2111" stop-opacity="0.0491"/>
<stop offset="0.9972" stop-color="#23180D" stop-opacity="0"/>
</radialGradient>
<linearGradient id="paint11_linear_12854_737" x1="49.9854" y1="105.229" x2="70.9663" y2="105.229" gradientUnits="userSpaceOnUse">
<stop stop-color="#613F1B"/>
<stop offset="0.4207" stop-color="#EDAE50"/>
<stop offset="0.4684" stop-color="#F0B85D"/>
<stop offset="0.5556" stop-color="#F7D37E"/>
<stop offset="0.6388" stop-color="#FFF1A3"/>
<stop offset="0.6934" stop-color="#FCEB9F"/>
<stop offset="0.7643" stop-color="#F2DB92"/>
<stop offset="0.8443" stop-color="#E2C07D"/>
<stop offset="0.9302" stop-color="#CB9B60"/>
<stop offset="0.9972" stop-color="#B77946"/>
</linearGradient>
<radialGradient id="paint12_radial_12854_737" cx="0" cy="0" r="1" gradientUnits="userSpaceOnUse" gradientTransform="translate(55.9107 101.403) scale(13.5885 13.5393)">
<stop stop-color="#FEFEFE"/>
<stop offset="0.3868" stop-color="#EBDFD2"/>
<stop offset="0.7903" stop-color="#DAC3AA"/>
<stop offset="1" stop-color="#D4B89B"/>
</radialGradient>
<radialGradient id="paint13_radial_12854_737" cx="0" cy="0" r="1" gradientUnits="userSpaceOnUse" gradientTransform="translate(58.8647 100.682) scale(12.121 12.0771)">
<stop stop-color="#FAF7F4"/>
<stop offset="0.9972" stop-color="#F5F0E8" stop-opacity="0"/>
</radialGradient>
<linearGradient id="paint14_linear_12854_737" x1="51.7347" y1="105.228" x2="65.2557" y2="105.228" gradientUnits="userSpaceOnUse">
<stop stop-color="#B77946"/>
<stop offset="0.1034" stop-color="#EDAE50"/>
<stop offset="0.1954" stop-color="#E2A54D"/>
<stop offset="0.355" stop-color="#C68E45"/>
<stop offset="0.5617" stop-color="#996839"/>
<stop offset="0.6341" stop-color="#875934"/>
<stop offset="0.6378" stop-color="#8A5D37"/>
<stop offset="0.6745" stop-color="#A98454"/>
<stop offset="0.7138" stop-color="#C4A66C"/>
<stop offset="0.7555" stop-color="#D9C180"/>
<stop offset="0.8006" stop-color="#EAD790"/>
<stop offset="0.8507" stop-color="#F6E69B"/>
<stop offset="0.9097" stop-color="#FDEEA1"/>
<stop offset="1" stop-color="#FFF1A3"/>
</linearGradient>
<radialGradient id="paint15_radial_12854_737" cx="0" cy="0" r="1" gradientUnits="userSpaceOnUse" gradientTransform="translate(28.688 23.5171) rotate(-12.0092) scale(23.5943 23.5163)">
<stop stop-color="#F3E8DE"/>
<stop offset="0.5391" stop-color="#F6EEE7" stop-opacity="0.3616"/>
<stop offset="0.9624" stop-color="#F8F1EB" stop-opacity="0"/>
</radialGradient>
<radialGradient id="paint16_radial_12854_737" cx="0" cy="0" r="1" gradientUnits="userSpaceOnUse" gradientTransform="translate(55.6384 97.5256) rotate(-12.0092) scale(20.1403 20.0737)">
<stop stop-color="#F3E8DE"/>
<stop offset="0.5391" stop-color="#F6EEE7" stop-opacity="0.3616"/>
<stop offset="0.9624" stop-color="#F8F1EB" stop-opacity="0"/>
</radialGradient>
<clipPath id="clip0_12854_737">
<rect width="117" height="125" fill="white"/>
</clipPath>
</defs>
</svg>
