<svg width="32" height="32" viewBox="0 0 32 32" fill="none" xmlns="http://www.w3.org/2000/svg">
<path fill-rule="evenodd" clip-rule="evenodd" d="M16 32C24.8366 32 32 24.8366 32 16C32 7.16344 24.8366 0 16 0C7.16344 0 0 7.16344 0 16C0 24.8366 7.16344 32 16 32ZM20.8 12.8C20.8 15.451 18.651 17.6 16 17.6C13.349 17.6 11.2 15.451 11.2 12.8C11.2 10.149 13.349 8 16 8C18.651 8 20.8 10.149 20.8 12.8ZM6.39883 24C8.58812 21.0853 12.0737 19.2 15.9997 19.2C19.9257 19.2 23.4113 21.0853 25.6006 24C23.4113 26.9147 19.9257 28.8 15.9997 28.8C12.0737 28.8 8.58812 26.9147 6.39883 24Z" fill="#B38465"/>
</svg>
