<svg width="32" height="32" viewBox="0 0 32 32" fill="none" xmlns="http://www.w3.org/2000/svg">
<g clip-path="url(#clip0_12744_222)">
<rect width="32" height="32" rx="16" fill="#53AE94"/>
<path d="M17.9747 13.8681V11.4878H23.4176V7.86133H8.59642V11.4878H14.0396V13.8661C9.61555 14.0693 6.28955 14.9455 6.28955 15.9951C6.28955 17.0447 9.61755 17.9208 14.0396 18.1253V25.7493H17.9756V18.1243C22.3916 17.9205 25.7112 17.045 25.7112 15.9963C25.7112 14.9477 22.3916 14.0722 17.9756 13.8683L17.9747 13.8681ZM17.9756 17.4786V17.4767C17.8646 17.4837 17.2939 17.518 16.0235 17.518C15.0079 17.518 14.2933 17.4892 14.0414 17.4761V17.4793C10.1329 17.3062 7.21555 16.6256 7.21555 15.8112C7.21555 14.9968 10.1333 14.3171 14.0414 14.1437V16.8013C14.2974 16.819 15.0296 16.8621 16.0402 16.8621C17.2539 16.8621 17.8642 16.8121 17.9762 16.8013V14.1438C21.8769 14.3176 24.7877 14.9988 24.7877 15.8103C24.7877 16.6218 21.8752 17.3035 17.9762 17.4772" fill="white"/>
</g>
<defs>
<clipPath id="clip0_12744_222">
<rect width="32" height="32" rx="16" fill="white"/>
</clipPath>
</defs>
</svg>
