<svg width="19" height="18" viewBox="0 0 19 18" fill="none"
    xmlns="http://www.w3.org/2000/svg">
    <g opacity="0.5">
        <path d="M16.7612 5.31387L14.5112 6.60938V3.9375C14.5112 3.31699 14.0067 2.8125 13.3862 2.8125H2.97998C2.35947 2.8125 1.85498 3.31699 1.85498 3.9375V14.0625C1.85498 14.683 2.35947 15.1875 2.97998 15.1875H13.3862C14.0067 15.1875 14.5112 14.683 14.5112 14.0625V11.3906L16.7612 12.6861C17.1356 12.9023 17.605 12.6316 17.605 12.201V5.80078C17.605 5.36836 17.1356 5.09766 16.7612 5.31387ZM13.2456 13.9219H3.12061V4.07812H13.2456V13.9219ZM16.3394 10.9863L14.5112 9.93516V8.0666L16.3394 7.01367V10.9863ZM4.38623 6.32812H6.35498C6.43232 6.32812 6.49561 6.26484 6.49561 6.1875V5.34375C6.49561 5.26641 6.43232 5.20312 6.35498 5.20312H4.38623C4.30889 5.20312 4.24561 5.26641 4.24561 5.34375V6.1875C4.24561 6.26484 4.30889 6.32812 4.38623 6.32812Z" fill="white"/>
    </g>
</svg>
