<svg width="25" height="25" viewBox="0 0 25 25" fill="none"
    xmlns="http://www.w3.org/2000/svg">
    <path d="M4.65838 14.2041C3.94537 13.0157 3.94537 11.5311 4.65838 10.3428C4.87596 9.98018 5.23641 9.72615 5.6511 9.64322L7.34413 9.30461C7.44499 9.28444 7.53591 9.23034 7.60176 9.15132L9.67085 6.66842C10.8534 5.24935 11.4447 4.53982 11.9723 4.73086C12.5 4.9219 12.5 5.84551 12.5 7.69272L12.5 16.8542C12.5 18.7014 12.5 19.625 11.9723 19.816C11.4447 20.0071 10.8534 19.2975 9.67085 17.8785L7.60176 15.3956C7.53591 15.3165 7.44499 15.2624 7.34413 15.2423L5.6511 14.9037C5.23641 14.8207 4.87596 14.5667 4.65838 14.2041Z" fill="white"/>
    <path d="M15.0355 8.7379C15.9684 9.67076 16.4948 10.9345 16.5 12.2537C16.5052 13.573 15.9888 14.8408 15.0633 15.781" stroke="white" stroke-width="2" stroke-linecap="round"/>
</svg>
