<svg width="40" height="40" viewBox="0 0 40 40" fill="none" xmlns="http://www.w3.org/2000/svg">
<path d="M5 11.6668C5 9.82588 6.49238 8.3335 8.33333 8.3335H31.6667C33.5076 8.3335 35 9.82588 35 11.6668V15.0002H28.3333C25.5719 15.0002 23.3333 17.2387 23.3333 20.0002C23.3333 22.7616 25.5719 25.0002 28.3333 25.0002H35V28.3335C35 30.1744 33.5076 31.6668 31.6667 31.6668H8.33333C6.49238 31.6668 5 30.1744 5 28.3335V11.6668Z" fill="#C1296A"/>
<path fill-rule="evenodd" clip-rule="evenodd" d="M25 20.0002C25 18.1592 26.4924 16.6668 28.3333 16.6668H35C35.9205 16.6668 36.6667 17.413 36.6667 18.3335V21.6668C36.6667 22.5873 35.9205 23.3335 35 23.3335H28.3333C26.4924 23.3335 25 21.8411 25 20.0002ZM30 20.0002C30 20.9206 29.2538 21.6668 28.3333 21.6668C27.4129 21.6668 26.6667 20.9206 26.6667 20.0002C26.6667 19.0797 27.4129 18.3335 28.3333 18.3335C29.2538 18.3335 30 19.0797 30 20.0002Z" fill="#C1296A"/>
</svg>
