<svg width="33" height="33" viewBox="0 0 33 33" fill="none" xmlns="http://www.w3.org/2000/svg">
<path d="M14.7205 5.37483L3.94749 24.3748C3.77586 24.6783 3.68536 25.0226 3.68506 25.3731C3.68476 25.7235 3.77466 26.068 3.94575 26.3718C4.11685 26.6756 4.36314 26.9282 4.65995 27.1042C4.95675 27.2803 5.29365 27.3736 5.6369 27.3748H27.183C27.5263 27.3736 27.8632 27.2803 28.16 27.1042C28.4568 26.9282 28.7031 26.6756 28.8742 26.3718C29.0453 26.068 29.1352 25.7235 29.1349 25.3731C29.1345 25.0226 29.0441 24.6783 28.8724 24.3748L18.0994 5.37483C17.929 5.07091 17.6831 4.81834 17.3864 4.64268C17.0897 4.46702 16.7529 4.37451 16.41 4.37451C16.067 4.37451 15.7302 4.46702 15.4335 4.64268C15.1368 4.81834 14.8909 5.07091 14.7205 5.37483Z" fill="#FF4D3D"/>
<path d="M17.8175 22.875C17.8175 23.6701 17.1865 24.3125 16.4109 24.3125C15.6354 24.3125 15.0044 23.6701 15.0044 22.875C15.0044 22.0799 15.6354 21.4375 16.4109 21.4375C17.1865 21.4375 17.8175 22.0799 17.8175 22.875Z" fill="white" stroke="white" stroke-width="0.125"/>
<path d="M16.4106 13.375V18.375" stroke="white" stroke-width="2.5" stroke-linecap="round" stroke-linejoin="round"/>
</svg>
