<svg width="40" height="40" viewBox="0 0 40 40" fill="none" xmlns="http://www.w3.org/2000/svg">
<rect x="0.5" y="0.5" width="39" height="39" rx="2.5" stroke="#E6E8EC"/>
<path d="M19.6067 18.1751C20.0977 18.1751 20.4821 18.0157 20.7635 17.7891C21.043 17.5614 21.1828 17.2516 21.1828 16.8537V14.4522C21.1828 14.0988 21.0402 13.8068 20.7558 13.5821C20.4694 13.3574 20.1036 13.2456 19.6552 13.2456C19.1652 13.2456 18.7731 13.3515 18.4829 13.5643C18.1918 13.7781 18.0462 14.0632 18.0462 14.4245V16.8338C18.0462 17.2297 18.1878 17.5425 18.4712 17.7772C18.7545 18.0118 19.1341 18.1751 19.6067 18.1751ZM19.0934 14.5414C19.0934 14.4502 19.14 14.3771 19.2322 14.3187C19.3254 14.2622 19.4457 14.2345 19.5933 14.2345C19.7543 14.2345 19.8844 14.2622 19.9825 14.3187C20.0815 14.3771 20.13 14.4504 20.13 14.5414V16.824C20.13 16.9369 20.0815 17.0259 19.9844 17.0903C19.8874 17.1537 19.7573 17.1863 19.5933 17.1863C19.4332 17.1863 19.309 17.1556 19.2225 17.0913C19.1371 17.0289 19.0934 16.9398 19.0934 16.824V14.5414ZM22.8559 18.1722C23.0286 18.1722 23.2043 18.0712 23.3868 17.9703C23.5712 17.8673 23.7468 17.7168 23.9157 17.5209V18.0544H24.8328V13.2386H23.9157V16.8942C23.8304 16.9982 23.7353 17.0843 23.6334 17.1526C23.5295 17.2199 23.4441 17.2546 23.3772 17.2546C23.2908 17.2546 23.2277 17.2298 23.1909 17.1774C23.152 17.1269 23.1307 17.0447 23.1307 16.9319V13.2396H22.2156V17.2635C22.2156 17.5506 22.2709 17.7654 22.3766 17.908C22.4842 18.0514 22.6433 18.1722 22.8559 18.1722ZM25.5228 20.1629H14.4399C12.6776 20.1629 11.25 21.5636 11.25 23.289V25.9319C11.25 27.6583 12.6776 29.059 14.4399 29.059H25.5226C27.284 29.059 28.7126 27.6583 28.7126 25.9319V23.289C28.7127 21.5635 27.2841 20.1629 25.5228 20.1629ZM16.0887 22.8454H15.1087V26.9851H14.1605V22.8454H13.1803V22.1397H16.0889C16.0887 22.1397 16.0887 22.8454 16.0887 22.8454ZM19.0138 27.0425H17.9919V26.6129C17.8017 26.7714 17.6066 26.893 17.4009 26.9743C17.198 27.0594 17.0001 27.1 16.808 27.1C16.5712 27.1 16.3946 27.0416 16.2742 26.9238C16.1558 26.808 16.0947 26.6338 16.0947 26.4011V23.1326H17.1166V26.1309C17.1166 26.224 17.1379 26.2894 17.1787 26.3309C17.2234 26.3734 17.2942 26.3922 17.3894 26.3922C17.4632 26.3922 17.5602 26.3655 17.6747 26.31C17.7901 26.2555 17.896 26.1863 17.992 26.1002V23.1315H19.0139C19.0138 23.1315 19.0138 27.0425 19.0138 27.0425ZM22.882 26.2982C22.882 26.5546 22.8024 26.7495 22.6443 26.8872C22.488 27.0247 22.2571 27.092 21.9592 27.092C21.7603 27.092 21.5836 27.0663 21.4302 27.0138C21.276 26.9614 21.1304 26.8802 20.9984 26.7683V27.0455H19.9784V22.1397H20.9984V23.7205C21.1362 23.6117 21.2808 23.5265 21.4312 23.4691C21.5854 23.4107 21.7408 23.383 21.897 23.383C22.2163 23.383 22.4599 23.4592 22.6278 23.6127C22.7976 23.7671 22.882 23.9938 22.882 24.2897C22.882 24.2896 22.882 26.2982 22.882 26.2982ZM26.7698 25.1944H24.8871V25.9012C24.8871 26.0982 24.9181 26.2348 24.9831 26.312C25.0491 26.3882 25.1607 26.4258 25.317 26.4258C25.482 26.4258 25.5946 26.3932 25.6606 26.3288C25.7247 26.2635 25.7596 26.1219 25.7596 25.9002V25.7299H26.7718V25.9219C26.7718 26.306 26.6505 26.5951 26.4001 26.7901C26.1536 26.9841 25.7848 27.081 25.2947 27.081C24.8532 27.081 24.5058 26.9781 24.2525 26.7722C24.0002 26.5684 23.872 26.2833 23.872 25.9229V24.2381C23.872 23.9144 24.0118 23.6471 24.2913 23.4423C24.5698 23.2384 24.927 23.1364 25.3685 23.1364C25.8188 23.1364 26.1652 23.2314 26.4079 23.4205C26.6495 23.6096 26.7699 23.8828 26.7699 24.2372C26.7698 24.2372 26.7698 25.1944 26.7698 25.1944ZM15.5395 18.1861H16.6973V15.3085L18.0453 11.25H16.8681L16.1519 14.0237H16.0781L15.327 11.25H14.1595L15.5394 15.4382C15.5395 15.4382 15.5395 18.1861 15.5395 18.1861ZM21.4205 23.957L21.206 23.9927L20.9974 24.1026V26.3575C21.079 26.4159 21.1595 26.4605 21.2372 26.4852L21.4808 26.5238C21.6049 26.5238 21.6952 26.499 21.7534 26.4466C21.8107 26.3961 21.8407 26.3129 21.8407 26.1991V24.3292C21.8407 24.2055 21.8067 24.1134 21.735 24.0511C21.6612 23.9888 21.5574 23.957 21.4205 23.957Z" fill="white"/>
<path d="M25.3708 23.793C25.2136 23.793 25.1019 23.8267 25.0331 23.8959C24.9652 23.9623 24.9321 24.0751 24.9321 24.2325V24.6106H25.8026V24.2325C25.8026 24.0751 25.7667 23.9632 25.6988 23.8959C25.6318 23.8267 25.5202 23.793 25.3708 23.793Z" fill="white"/>
</svg>
